<svg xmlns="http://www.w3.org/2000/svg"  viewBox="0 0 100 100" width="100px" height="100px"><path d="M 41.425781 14.998047 A 1.0002308 1.0002308 0 0 0 41.283203 15.005859 C 34.228822 15.070291 28.413653 17.294628 24.363281 21.173828 C 20.252726 25.110668 18 30.718235 18 37.25 C 18 42.027535 19.766699 45.740228 21.765625 49.302734 C 23.764551 52.86524 25.992963 56.316851 27.216797 60.75 C 28.609366 65.922027 29.592985 71.799026 31.09375 76.478516 C 31.844498 78.819399 32.717505 80.870831 33.925781 82.416016 C 35.134058 83.961201 36.784752 85 38.771484 85 C 40.764304 85 42.521856 84.274707 43.689453 82.869141 C 44.857051 81.463574 45.421875 79.481306 45.421875 77.058594 C 45.421875 70.823183 46.676533 62.811905 47.943359 55.75 C 48.202277 54.511382 49.085556 54.015247 50.015625 54 C 50.970644 53.98474 51.838866 54.448715 52.048828 55.712891 A 1.0001 1.0001 0 0 0 52.052734 55.730469 C 53.319908 62.651568 54.578125 70.816509 54.578125 77.058594 C 54.578125 79.48084 55.141046 81.461529 56.308594 82.867188 C 57.476148 84.272843 59.233649 85 61.226562 85 C 63.216861 85 64.869168 83.948605 66.076172 82.392578 C 67.283175 80.836551 68.155836 78.772962 68.90625 76.423828 C 70.406726 71.726664 71.390742 65.848708 72.783203 60.75 C 74.00704 56.316842 76.235455 52.865356 78.234375 49.302734 C 80.231586 45.743159 81.995031 42.032878 81.998047 37.261719 L 81.998047 37.255859 C 82.069686 30.724209 79.852726 25.113433 75.759766 21.175781 C 71.665541 17.236913 65.739996 15 58.542969 15 C 55.343447 15 52.531435 15.425212 50.068359 16.25 C 47.606115 15.425218 44.795103 15 41.595703 15 C 41.57265 15 41.550371 15.001907 41.527344 15.001953 A 1.0001 1.0001 0 0 0 41.515625 15.001953 A 1.0001 1.0001 0 0 0 41.425781 14.998047 z M 58.542969 17 C 65.327942 17 70.699521 19.083055 74.373047 22.617188 C 78.046572 26.151319 80.067925 31.164559 80 37.238281 A 1.0001 1.0001 0 0 0 79.998047 37.25 C 79.998047 41.538938 78.445814 44.838841 76.490234 48.324219 C 74.534654 51.809597 72.173632 55.441955 70.855469 60.216797 A 1.0001 1.0001 0 0 0 70.853516 60.21875 C 69.42159 65.461163 68.429422 71.341674 67 75.816406 C 66.285289 78.053772 65.454043 79.928542 64.494141 81.166016 C 63.534238 82.403489 62.555265 83 61.226562 83 C 59.688477 83 58.621858 82.521936 57.847656 81.589844 C 57.073454 80.657751 56.578125 79.169347 56.578125 77.058594 C 56.578125 70.555922 55.297249 62.346028 54.023438 55.386719 L 54.021484 55.380859 C 53.656834 53.205133 51.781562 51.971287 49.984375 52 C 48.231752 52.02873 46.422855 53.232115 45.984375 55.347656 A 1.0001 1.0001 0 0 0 45.978516 55.373047 C 44.704721 62.471621 43.421875 70.550679 43.421875 77.058594 C 43.421875 79.169881 42.926496 80.657911 42.152344 81.589844 C 41.378232 82.521778 40.309664 83 38.771484 83 C 37.439216 83 36.460739 82.409721 35.501953 81.183594 C 34.543167 79.957466 33.712549 78.095054 32.998047 75.867188 C 31.569043 71.411455 30.576839 65.532797 29.146484 60.222656 A 1.0001 1.0001 0 0 0 29.144531 60.216797 C 27.826412 55.441987 25.46534 51.809463 23.509766 48.324219 C 21.554192 44.838975 20 41.539465 20 37.25 C 20 31.173765 22.053899 26.155301 25.746094 22.619141 C 29.412806 19.107386 34.740713 17.034384 41.458984 17.005859 C 47.09953 17.429888 52.041453 19.986889 55.527344 24.021484 A 1.0004522 1.0004522 0 1 0 57.041016 22.712891 C 55.39588 20.808798 53.448528 19.205792 51.275391 17.957031 C 53.360801 17.336461 55.769151 17 58.542969 17 z M 59.847656 20.03125 A 0.50005 0.50005 0 0 0 59.851562 21.03125 C 64.195787 21.234471 67.834037 22.459099 70.550781 24.587891 A 0.50011578 0.50011578 0 0 0 71.167969 23.800781 C 68.256719 21.519573 64.404213 20.242029 59.898438 20.03125 A 0.50005 0.50005 0 0 0 59.847656 20.03125 z M 39.113281 20.068359 C 35.670575 20.168511 32.178225 21.273349 29.181641 23.738281 A 0.50090322 0.50090322 0 1 0 29.818359 24.511719 C 33.572913 21.423295 38.132654 20.60743 42.363281 21.277344 C 46.593908 21.947258 50.472995 24.122586 52.771484 26.941406 A 0.50042038 0.50042038 0 1 0 53.546875 26.308594 C 51.061364 23.260414 46.984904 20.998101 42.519531 20.291016 C 41.403188 20.114244 40.26085 20.034975 39.113281 20.068359 z M 72.886719 25.650391 A 0.50005 0.50005 0 0 0 72.519531 26.478516 C 73.214587 27.298893 73.810241 28.201525 74.300781 29.181641 A 0.50005 0.50005 0 1 0 75.193359 28.732422 C 74.6679 27.682537 74.030147 26.713653 73.283203 25.832031 A 0.50005 0.50005 0 0 0 72.886719 25.650391 z M 75.917969 31.546875 A 0.50005 0.50005 0 0 0 75.865234 31.548828 A 0.50005 0.50005 0 0 0 75.417969 32.179688 C 75.821769 33.735676 76.020548 35.431016 76 37.244141 L 75.998047 37.248047 L 75.998047 37.25 C 75.998047 41.154815 74.302329 44.118927 72.070312 48.001953 C 70.289337 51.099913 68.24059 54.655431 66.996094 59.164062 L 66.996094 59.166016 C 66.354905 61.513349 65.805362 63.960439 65.275391 66.320312 C 64.792887 68.469328 64.104124 71.536654 63.320312 74.144531 C 62.928407 75.44847 62.510929 76.638132 62.095703 77.525391 C 61.694916 78.381795 61.259549 78.880381 61.064453 78.988281 C 61.037333 78.985481 60.986633 78.987122 60.970703 78.982422 C 60.927213 78.969822 60.914583 78.970541 60.863281 78.900391 C 60.760673 78.760095 60.578125 78.236118 60.578125 77.058594 A 0.50005 0.50005 0 1 0 59.578125 77.058594 C 59.578125 78.323069 59.712748 79.02003 60.056641 79.490234 C 60.228587 79.725336 60.471462 79.877693 60.691406 79.941406 C 60.911398 80.005073 61.098563 80 61.226562 80 L 61.330078 80 L 61.425781 79.958984 C 62.131307 79.6527 62.550773 78.913304 63.001953 77.949219 C 63.453133 76.985133 63.879577 75.761577 64.279297 74.431641 C 65.078736 71.771768 65.769456 68.688048 66.251953 66.539062 C 66.781844 64.179549 67.328335 61.747766 67.960938 59.431641 L 67.960938 59.429688 C 69.166496 55.063255 71.154779 51.597596 72.935547 48.5 C 75.166448 44.618912 76.99627 41.448015 76.998047 37.255859 L 76.998047 37.253906 C 77.019327 35.361796 76.814764 33.579101 76.386719 31.929688 A 0.50005 0.50005 0 0 0 75.917969 31.546875 z M 50.212891 48.003906 C 46.281673 47.946806 42.879676 50.452665 42.066406 54.367188 L 42.066406 54.369141 L 42.066406 54.371094 C 42.058406 54.411094 42.049406 54.453984 42.041016 54.501953 C 41.898002 55.299046 41.750657 56.123657 41.605469 56.96875 C 41.197845 59.338373 40.790535 61.87054 40.439453 64.439453 A 0.50005 0.50005 0 1 0 41.429688 64.576172 C 41.778605 62.023085 42.18542 59.501049 42.591797 57.138672 L 42.591797 57.136719 C 42.736498 56.294461 42.88251 55.47407 43.025391 54.677734 L 43.025391 54.675781 C 43.030991 54.643741 43.038875 54.606401 43.046875 54.566406 C 43.767207 51.109551 46.695953 48.953025 50.199219 49.003906 A 0.50005 0.50005 0 1 0 50.212891 48.003906 z M 40.099609 71.525391 A 0.50005 0.50005 0 0 0 39.623047 71.996094 C 39.495339 73.739763 39.421875 75.441404 39.421875 77.058594 C 39.421875 78.236118 39.236287 78.75736 39.132812 78.896484 C 39.081072 78.966044 39.068932 78.966569 39.019531 78.980469 C 38.970131 78.994369 38.876164 79.001703 38.740234 79.001953 A 0.50005 0.50005 0 1 0 38.742188 80.001953 C 38.877756 80.001703 39.066308 80.006049 39.289062 79.943359 C 39.511817 79.880669 39.760159 79.729953 39.935547 79.494141 C 40.286322 79.022515 40.421875 78.323069 40.421875 77.058594 C 40.421875 75.471783 40.492845 73.794644 40.619141 72.070312 A 0.50005 0.50005 0 0 0 40.099609 71.525391 z"/></svg>