<svg xmlns="http://www.w3.org/2000/svg" xmlns:xlink="http://www.w3.org/1999/xlink" viewBox="0,0,256,256" width="66px" height="66px" fill-rule="nonzero"><g fill="#000000" fill-rule="nonzero" stroke="none" stroke-width="1" stroke-linecap="butt" stroke-linejoin="miter" stroke-miterlimit="10" stroke-dasharray="" stroke-dashoffset="0" font-family="none" font-weight="none" font-size="none" text-anchor="none" style="mix-blend-mode: normal"><g transform="scale(3.87879,3.87879)"><path d="M38.92,42.46h5.25c3.23,0 5.89,-2.49 6.17,-5.65l2.86,-1.12c1.03,-0.4 1.69,-1.38 1.69,-2.48v-1.43h0.94c0.39,1.17 1.49,2.03 2.8,2.03c1.63,0 2.96,-1.33 2.96,-2.97c0,-1.63 -1.33,-2.96 -2.96,-2.96c-1.31,0 -2.41,0.85 -2.8,2.03h-0.93v-1.43c0,-1.1 -0.66,-2.08 -1.69,-2.48l-2.86,-1.12c-0.28,-3.16 -2.94,-5.65 -6.17,-5.65h-2.85v-1.18c0,-1.74 -1.42,-3.16 -3.16,-3.16h-4.23v-2.56c1.74,-0.42 3.04,-1.98 3.04,-3.85c0,-2.19 -1.78,-3.97 -3.97,-3.97c-2.19,0 -3.96,1.78 -3.96,3.97c0,1.87 1.3,3.43 3.04,3.85v2.56h-4.23c-1.74,0 -3.16,1.42 -3.16,3.16v1.18h-2.85c-3.23,0 -5.89,2.49 -6.17,5.65l-2.89,1.12c-1.03,0.4 -1.69,1.38 -1.69,2.48v1.43h-0.94c-0.39,-1.17 -1.49,-2.03 -2.8,-2.03c-1.63,0 -2.96,1.33 -2.96,2.96c0,1.64 1.33,2.97 2.96,2.97c1.31,0 2.41,-0.85 2.8,-2.03h0.94v1.43c0,1.1 0.66,2.08 1.69,2.48l2.86,1.12c0.28,3.16 2.94,5.65 6.17,5.65h6.8v4.66h-5.07h-0.01c-0.01,0 -0.01,0 -0.02,0h-13.1c-2.48,0 -4.51,2.02 -4.51,4.51c0,2.44 1.96,4.42 4.39,4.49v6.2c0,0.52 0.42,0.93 0.93,0.93c0.51,0 0.93,-0.42 0.93,-0.93v-6.19h3.45v6.19c0,0.52 0.42,0.93 0.93,0.93h32.88c0.52,0 0.93,-0.42 0.93,-0.93v-6.19h3.42v6.19c0,0.52 0.42,0.93 0.93,0.93c0.51,0 0.93,-0.42 0.93,-0.93v-6.2c2.43,-0.06 4.39,-2.04 4.39,-4.49c0,-2.48 -2.02,-4.51 -4.51,-4.51h-13.06h-0.01h-3.51v-4.66zM58.64,29.75c0.6,0 1.09,0.49 1.09,1.09c0,0.61 -0.49,1.1 -1.09,1.1c-0.6,0 -1.09,-0.49 -1.1,-1.09v0v-0.01c0,-0.6 0.5,-1.09 1.1,-1.09zM30.9,8.48c0,-1.16 0.94,-2.11 2.1,-2.11c1.16,0 2.11,0.95 2.11,2.11c0,1.16 -0.95,2.11 -2.11,2.11c-1.16,0 -2.1,-0.95 -2.1,-2.11zM7.36,31.94c-0.6,0 -1.09,-0.49 -1.09,-1.1c0,-0.6 0.49,-1.09 1.09,-1.09c0.61,0 1.1,0.49 1.1,1.09v0.01v0c-0.01,0.6 -0.5,1.09 -1.1,1.09zM53.03,28.48v4.73c0,0.33 -0.2,0.62 -0.51,0.74l-2.15,0.84v-7.9l2.15,0.84c0.32,0.13 0.51,0.42 0.51,0.75zM26.54,18.06c0,-0.71 0.58,-1.29 1.29,-1.29h10.33c0.71,0 1.29,0.58 1.29,1.29v1.18h-12.91zM12.97,33.21v-4.73c0,-0.33 0.2,-0.62 0.51,-0.74l2.15,-0.84v7.9l-2.15,-0.84c-0.32,-0.13 -0.51,-0.42 -0.51,-0.75zM17.49,36.26v-0.09v-10.64v-0.09c0,-2.39 1.94,-4.33 4.33,-4.33h3.77h0.01h14.79h0.01h3.77c2.39,0 4.33,1.94 4.33,4.33v0.09v10.63v0.09c0,2.39 -1.94,4.33 -4.33,4.33h-6.18h-8.43h-7.73c-2.4,0.01 -4.34,-1.93 -4.34,-4.32zM37.06,42.46v4.65h-6.57v-4.65zM7.78,51.62c0,-1.46 1.18,-2.64 2.64,-2.64h8c-1.54,1.3 -2.58,3.16 -2.79,5.27h-5.22c-1.44,0 -2.63,-1.18 -2.63,-2.63zM48.51,61.38h-31.02v-6.33c0,-3.34 2.72,-6.06 6.06,-6.06h18.89c3.34,0 6.06,2.72 6.06,6.06v0.14v6.19zM55.55,48.98c1.46,0 2.64,1.18 2.64,2.64c0,1.45 -1.18,2.63 -2.64,2.63h-5.22v-0.01c0,-0.03 -0.01,-0.07 -0.02,-0.1c-0.03,-0.23 -0.06,-0.46 -0.1,-0.68c-0.01,-0.04 -0.02,-0.08 -0.03,-0.12c-0.05,-0.22 -0.1,-0.43 -0.16,-0.64c-0.01,-0.05 -0.03,-0.09 -0.05,-0.14c-0.07,-0.2 -0.14,-0.4 -0.22,-0.59c-0.02,-0.05 -0.04,-0.09 -0.06,-0.13c-0.08,-0.19 -0.17,-0.38 -0.27,-0.56c-0.02,-0.04 -0.05,-0.08 -0.07,-0.12c-0.1,-0.18 -0.21,-0.36 -0.33,-0.54c-0.02,-0.03 -0.05,-0.07 -0.07,-0.1c-0.12,-0.17 -0.25,-0.35 -0.38,-0.51c-0.03,-0.03 -0.05,-0.06 -0.08,-0.09c-0.14,-0.16 -0.28,-0.32 -0.43,-0.47c-0.03,-0.03 -0.06,-0.05 -0.08,-0.08c-0.14,-0.13 -0.28,-0.27 -0.42,-0.39z"></path><path d="M25.61,25.79c-2.35,0 -4.26,1.92 -4.26,4.27c0,2.35 1.91,4.26 4.26,4.26c2.35,0 4.27,-1.91 4.27,-4.26c0,-2.36 -1.92,-4.27 -4.27,-4.27zM25.61,32.46c-1.32,0 -2.4,-1.08 -2.4,-2.4c0,-1.33 1.08,-2.4 2.4,-2.4c1.33,0 2.4,1.08 2.4,2.4c0,1.32 -1.08,2.4 -2.4,2.4z"></path><path d="M40.39,34.32c2.35,0 4.27,-1.91 4.27,-4.26c0,-2.35 -1.92,-4.27 -4.27,-4.27c-2.35,0 -4.26,1.92 -4.26,4.27c-0.01,2.35 1.91,4.26 4.26,4.26zM40.39,27.65c1.33,0 2.4,1.08 2.4,2.4c0,1.32 -1.08,2.4 -2.4,2.4c-1.32,0 -2.4,-1.08 -2.4,-2.4c0,-1.32 1.07,-2.4 2.4,-2.4z"></path><path d="M33,33.39c0.52,0 0.93,-0.42 0.93,-0.93v-3.2c0,-0.52 -0.42,-0.93 -0.93,-0.93c-0.51,0 -0.93,0.42 -0.93,0.93v3.2c0,0.51 0.42,0.93 0.93,0.93z"></path><path d="M33.21,38.21c0.96,0 1.92,-0.36 2.65,-1.09c0.37,-0.36 0.37,-0.95 0.01,-1.32c-0.36,-0.37 -0.95,-0.37 -1.32,-0.01c-0.74,0.73 -1.94,0.73 -2.68,0c-0.37,-0.36 -0.96,-0.36 -1.32,0.01c-0.36,0.37 -0.36,0.96 0.01,1.32c0.73,0.73 1.69,1.09 2.65,1.09z"></path><path d="M28.21,14.2c0.24,0 0.48,-0.09 0.66,-0.27c0.36,-0.36 0.36,-0.95 0,-1.32c-2.27,-2.27 -2.27,-5.98 0.01,-8.25c0.36,-0.36 0.36,-0.96 0,-1.32c-0.36,-0.36 -0.95,-0.36 -1.32,0c-3,3 -3.01,7.89 -0.01,10.89c0.18,0.18 0.42,0.27 0.66,0.27z"></path><path d="M37.13,12.61c-0.36,0.36 -0.36,0.96 0,1.32c0.18,0.18 0.42,0.27 0.66,0.27c0.24,0 0.48,-0.09 0.66,-0.27c3,-3 3,-7.89 0,-10.9c-0.36,-0.36 -0.95,-0.36 -1.32,0c-0.36,0.36 -0.36,0.95 0,1.32c2.27,2.28 2.27,5.98 0,8.26z"></path><path d="M39.57,51.4h-13.14c-2.09,0 -3.78,1.7 -3.78,3.78c0,2.09 1.7,3.78 3.78,3.78h13.14c2.09,0 3.78,-1.7 3.78,-3.78c0,-2.09 -1.7,-3.78 -3.78,-3.78zM39.57,57.1h-13.14c-1.06,0 -1.92,-0.86 -1.92,-1.92c0,-1.06 0.86,-1.92 1.92,-1.92h13.14c1.06,0 1.92,0.86 1.92,1.92c-0.01,1.06 -0.87,1.92 -1.92,1.92z"></path></g></g></svg>