<svg xmlns="http://www.w3.org/2000/svg"  viewBox="0 0 50 50" width="50px" height="50px"><path d="M 30.613281 0.00390625 C 25.566478 0.067336 20.850032 3.0146025 18.917969 7.8671875 L 9.1054688 30.998047 A 1.0001 1.0001 0 0 0 9.0996094 31.015625 C 8.8066417 31.744471 9.2003349 32.564011 9.8964844 32.839844 A 1.0001 1.0001 0 0 0 9.8964844 32.841797 L 16.417969 35.412109 L 13.287109 43.375 C 12.461103 45.473502 13.491273 47.874527 15.582031 48.708984 C 17.673629 49.543251 20.067993 48.496666 20.892578 46.398438 L 24.03125 38.412109 L 27 39.582031 L 27 45 C 27 46.64497 28.35503 48 30 48 C 31.64497 48 33 46.64497 33 45 L 33 42.583984 C 33.342014 42.721014 33.611652 43 34 43 C 35.64497 43 37 41.64497 37 40 L 37 30.951172 L 43.111328 17.458984 A 1.0001 1.0001 0 0 0 43.130859 17.416016 C 45.707006 10.945781 42.337995 3.5617775 35.679688 0.9375 C 34.015099 0.28142625 32.295549 -0.017237 30.613281 0.00390625 z M 30.636719 1.9980469 C 32.063041 1.982781 33.525354 2.2384019 34.947266 2.7988281 C 40.634957 5.0405506 43.433352 11.24797 41.271484 16.677734 L 35.285156 29.886719 A 1.0001 1.0001 0 0 0 35 30.599609 L 35 40 C 35 40.56503 34.56503 41 34 41 C 33.43497 41 33 40.56503 33 40 L 33 39 L 33 38 A 1.0001 1.0001 0 1 0 31 38 L 31 39 L 31 40 L 31 45 C 31 45.56503 30.56503 46 30 46 C 29.43497 46 29 45.56503 29 45 L 29 34 A 1.0001 1.0001 0 1 0 27 34 L 27 37.433594 L 11.191406 31.201172 L 20.767578 8.6269531 A 1.0001 1.0001 0 0 0 20.775391 8.6074219 C 22.396828 4.5350069 26.357753 2.0438444 30.636719 1.9980469 z M 35.984375 6.9863281 A 1.0001 1.0001 0 0 0 35 8 L 35 11 C 35 11.56503 34.56503 12 34 12 C 33.43497 12 33 11.56503 33 11 L 33 9 A 1.0001 1.0001 0 1 0 31 9 L 31 11 C 31 12.64497 32.35503 14 34 14 C 35.64497 14 37 12.64497 37 11 L 37 8 A 1.0001 1.0001 0 0 0 35.984375 6.9863281 z M 25.359375 10.28125 A 1.0001 1.0001 0 0 0 24.375 11.296875 L 24.375 15.875 C 24.375 17.51997 25.73003 18.875 27.375 18.875 C 27.763348 18.875 28.032986 18.596014 28.375 18.458984 L 28.375 20.875 C 28.375 22.51997 29.73003 23.875 31.375 23.875 C 33.01997 23.875 34.375 22.51997 34.375 20.875 L 34.375 17.875 A 1.0001 1.0001 0 1 0 32.375 17.875 L 32.375 20.875 C 32.375 21.44003 31.94003 21.875 31.375 21.875 C 30.80997 21.875 30.375 21.44003 30.375 20.875 L 30.375 15.875 L 30.375 14.875 A 1.0001 1.0001 0 1 0 28.375 14.875 L 28.375 15.875 C 28.375 16.44003 27.94003 16.875 27.375 16.875 C 26.80997 16.875 26.375 16.44003 26.375 15.875 L 26.375 11.296875 A 1.0001 1.0001 0 0 0 25.359375 10.28125 z M 18.279297 36.144531 L 22.171875 37.679688 L 19.03125 45.667969 C 18.599836 46.76574 17.404668 47.283296 16.322266 46.851562 C 15.241024 46.42002 14.716443 45.204919 15.148438 44.107422 L 18.279297 36.144531 z"/></svg>