<svg xmlns="http://www.w3.org/2000/svg"  viewBox="0 0 60 60" width="60px" height="60px"><path d="M32.529,1.255A4.351,4.351,0,0,0,29.332,0,4.539,4.539,0,0,0,25,4.5v.26A4.475,4.475,0,0,0,22.5,4,4.561,4.561,0,0,0,18,8.5V22a6.006,6.006,0,0,0-6,6V40.232a10.981,10.981,0,0,0,3.844,8.354l2.632,2.268A8.7,8.7,0,0,1,21,57a3.008,3.008,0,0,0,3.017,3H41a3,3,0,0,0,3-3V54.211a10.881,10.881,0,0,1,1.832-6.051A12.869,12.869,0,0,0,48,41V24.5A4.505,4.505,0,0,0,43.5,20a4.455,4.455,0,0,0-2.777.986,4.369,4.369,0,0,0-1.04-1.657A4.429,4.429,0,0,0,36.5,18a4.474,4.474,0,0,0-2.5.762V4.7A4.807,4.807,0,0,0,32.529,1.255ZM27,4.5A2.554,2.554,0,0,1,29.406,2a2.394,2.394,0,0,1,1.736.694A2.8,2.8,0,0,1,32,4.7V22H27V4.5ZM22.5,6A2.5,2.5,0,0,1,25,8.5V22H20V8.5A2.565,2.565,0,0,1,22.5,6ZM44.168,47.051A12.87,12.87,0,0,0,42,54.211V57a1,1,0,0,1-1,1H24a1,1,0,0,1-1-1,10.718,10.718,0,0,0-3.158-7.6l-2.694-2.327A8.987,8.987,0,0,1,14,40.232V28a4,4,0,0,1,4-4H32a3,3,0,0,1,0,6H21a1,1,0,0,0-.449,1.894A10.511,10.511,0,0,1,26,41a1,1,0,0,0,2,0,12.065,12.065,0,0,0-3.944-9H32a4.949,4.949,0,0,0,1.425-.232,4.429,4.429,0,0,0,5.855.243A4.476,4.476,0,0,0,46,34.238V41A10.877,10.877,0,0,1,44.168,47.051ZM43.5,22A2.5,2.5,0,0,1,46,24.5v6a2.5,2.5,0,0,1-5,0v-6A2.5,2.5,0,0,1,43.5,22Zm-7-2A2.516,2.516,0,0,1,39,22.5v6a2.484,2.484,0,0,1-3.668,2.2,4.968,4.968,0,0,0-1.325-8.272A2.5,2.5,0,0,1,36.5,20Z"/></svg>