<svg xmlns="http://www.w3.org/2000/svg"  viewBox="0 0 80 80" width="80px" height="80px"><path d="M 39.712891 4 C 33.249676 4 29.45028 8.5998926 29.175781 13.345703 L 26.859375 17.279297 C 26.274878 18.273933 26.652226 19.5779 27.681641 20.103516 A 1.0001 1.0001 0 0 0 27.746094 20.134766 L 29 20.664062 L 29 23 C 29 24.210673 29.611482 25.257499 30.457031 25.941406 C 31.302581 26.625314 32.383542 27 33.5 27 L 34 27 L 34 27.402344 C 32.33855 28.26669 28.819354 30.187075 28.597656 30.308594 C 25.512994 30.350784 22.657436 30.954232 20.492188 32.453125 C 18.249368 34.005716 16.828125 36.550329 16.828125 39.896484 C 16.828125 41.527356 17.055466 42.789953 17.226562 43.710938 C 17.397661 44.631921 17.427333 45.18164 17.394531 45.28125 A 1.0001 1.0001 0 0 0 17.392578 45.289062 C 17.367158 45.367942 17.130013 45.900104 16.830078 46.576172 C 16.530143 47.25224 16.15593 48.133467 15.791016 49.177734 C 15.061187 51.266269 14.365234 54.013336 14.365234 57.140625 A 1.0001 1.0001 0 0 0 14.861328 58.003906 L 21.498047 61.865234 A 1.0002933 1.0002933 0 0 0 21.998047 62 A 1.0002933 1.0002933 0 0 0 22 62 C 22.002039 62 22.003837 62.000017 22.005859 62 A 1.0002933 1.0002933 0 0 0 22.185547 61.982422 C 22.190283 61.981736 22.194394 61.981158 22.199219 61.980469 C 22.204445 61.979598 22.209618 61.975632 22.214844 61.974609 A 1.0002933 1.0002933 0 0 0 22.542969 61.839844 A 1.0002933 1.0002933 0 0 0 22.546875 61.835938 C 22.55131 61.83309 22.556112 61.833035 22.560547 61.830078 C 22.572469 61.822925 22.583781 61.809802 22.595703 61.800781 A 1.0002933 1.0002933 0 0 0 22.646484 61.761719 C 22.667868 61.743301 22.689554 61.728044 22.710938 61.710938 C 22.724865 61.693528 22.736867 61.675612 22.751953 61.658203 A 1.0002933 1.0002933 0 0 0 22.820312 61.574219 A 1.0002933 1.0002933 0 0 0 22.830078 61.560547 C 22.832165 61.557416 22.831952 61.553912 22.833984 61.550781 A 1.0002933 1.0002933 0 0 0 22.976562 61.208984 A 1.0002933 1.0002933 0 0 0 22.980469 61.199219 C 22.980663 61.197859 22.980275 61.196665 22.980469 61.195312 A 1.0002933 1.0002933 0 0 0 22.982422 61.189453 A 1.0002933 1.0002933 0 0 0 23 61.001953 A 1.0002933 1.0002933 0 0 0 23 61 C 23 60.998721 23.000005 60.997373 23 60.996094 A 1.0002933 1.0002933 0 0 0 22.728516 60.316406 C 22.721291 60.308287 22.718406 60.296946 22.710938 60.289062 C 22.699956 60.278081 22.685288 60.272113 22.673828 60.261719 A 1.0002933 1.0002933 0 0 0 22.501953 60.134766 L 22.476562 60.119141 L 22.472656 60.117188 C 22.472109 60.1169 22.471251 60.117474 22.470703 60.117188 L 16.419922 56.597656 C 16.497852 54.000327 17.04414 51.651033 17.677734 49.837891 C 18.017695 48.865033 18.369295 48.037932 18.658203 47.386719 C 18.946011 46.737986 19.159755 46.325693 19.294922 45.908203 L 19.294922 45.90625 C 19.588103 45.013745 19.360432 44.255525 19.191406 43.345703 C 19.022254 42.435188 18.828125 41.344613 18.828125 39.896484 C 18.828125 37.08364 19.870428 35.316315 21.630859 34.097656 C 23.391291 32.878998 25.967864 32.273438 28.914062 32.273438 A 1.0001 1.0001 0 0 0 29.394531 32.150391 C 29.394531 32.150391 34.304708 29.46581 35.447266 28.894531 A 1.0001 1.0001 0 0 0 36 28 L 36 26 A 1.0001 1.0001 0 0 0 35 25 L 33.5 25 C 32.847458 25 32.177044 24.760561 31.714844 24.386719 C 31.252643 24.012876 31 23.558327 31 23 L 31 20 A 1.0001 1.0001 0 0 0 30.388672 19.078125 L 28.589844 18.318359 C 28.583344 18.312159 28.579224 18.301129 28.583984 18.292969 L 28.582031 18.292969 L 30.951172 14.271484 A 1.0001 1.0001 0 0 0 31.089844 13.779297 C 31.142126 9.9009441 34.006567 6 39.712891 6 C 44.720214 6 48.703125 10.033393 48.703125 14.669922 C 48.703125 17.327807 47.651623 18.925325 46.507812 20.492188 C 45.306658 22.137606 43.998047 24.147922 43.998047 26.5 L 43.998047 28 A 1.0001 1.0001 0 0 0 44.550781 28.894531 C 45.693267 29.466238 50.605469 32.150391 50.605469 32.150391 A 1.0001 1.0001 0 0 0 51.085938 32.273438 C 54.032137 32.273438 56.608709 32.878998 58.369141 34.097656 C 60.129572 35.316315 61.171875 37.08364 61.171875 39.896484 C 61.171875 41.344937 60.977237 42.435378 60.808594 43.345703 C 60.639951 44.256028 60.413343 45.013989 60.705078 45.90625 C 60.840126 46.323928 61.053856 46.737273 61.341797 47.386719 C 61.630517 48.037921 61.98059 48.863067 62.320312 49.835938 C 62.953466 51.649104 63.500248 54.000228 63.578125 56.597656 L 57.496094 60.134766 A 1.0012748 1.0012748 0 0 0 57.310547 60.275391 C 57.30402 60.281087 57.295581 60.283196 57.289062 60.289062 C 57.283196 60.295581 57.281087 60.303944 57.275391 60.310547 A 1.0012748 1.0012748 0 0 0 57 61 A 1.0012748 1.0012748 0 0 0 57.277344 61.693359 C 57.282094 61.698582 57.28421 61.705815 57.289062 61.710938 C 57.295238 61.716788 57.304225 61.718908 57.310547 61.724609 A 1.0012748 1.0012748 0 0 0 58.503906 61.865234 L 65.136719 58.003906 A 1.0001 1.0001 0 0 0 65.632812 57.140625 C 65.632812 54.013448 64.938286 51.266243 64.208984 49.177734 C 63.844333 48.13348 63.469671 47.252251 63.169922 46.576172 C 62.870173 45.900093 62.632938 45.368237 62.607422 45.289062 A 1.0001 1.0001 0 0 0 62.605469 45.285156 C 62.572199 45.183417 62.602868 44.62991 62.773438 43.708984 C 62.944043 42.788059 63.171875 41.527031 63.171875 39.896484 C 63.171875 36.550329 61.748678 34.005716 59.505859 32.453125 C 57.340138 30.953904 54.485834 30.350532 51.400391 30.308594 C 51.178514 30.187004 47.657638 28.266007 45.998047 27.402344 L 45.998047 26.5 C 45.998047 24.928078 46.988203 23.226456 48.123047 21.671875 C 49.315237 20.038737 50.703125 17.882037 50.703125 14.669922 C 50.703172 8.8944507 45.793567 4 39.712891 4 z M 38.847656 8 C 35.755309 8 33.757976 9.8409413 33.183594 11.794922 C 32.896402 12.771912 32.924584 13.794525 33.382812 14.660156 C 33.841042 15.525787 34.82201 16.154297 35.951172 16.154297 C 37.398672 16.154297 39.044956 16.196037 40.03125 16.570312 C 40.524397 16.757451 40.820819 16.985292 40.994141 17.28125 C 41.136767 17.524793 41.153418 17.985412 41.099609 18.542969 C 40.20988 19.162308 39.568043 19.962123 39.304688 20.837891 C 38.981054 21.914105 39 23 39 24 L 39 30 C 39 31.27381 38.089337 32.469142 36.28125 33.429688 C 34.473163 34.390233 31.861111 35 29 35 C 26.279762 35 24.426497 35.366301 23.113281 36.148438 C 21.800066 36.930572 21.158078 38.201727 21.007812 39.441406 C 20.707285 41.920765 21.714111 44.514408 21.505859 46.388672 C 21.521446 46.234637 21.369482 46.698097 21.064453 47.197266 C 20.757172 47.700118 20.340655 48.341147 19.949219 49.066406 C 19.166346 50.516925 18.408268 52.388866 19.050781 54.316406 A 1.0005646 1.0005646 0 1 0 20.949219 53.683594 C 20.591732 52.611134 21.022609 51.287356 21.708984 50.015625 C 22.052173 49.37976 22.440281 48.779038 22.769531 48.240234 C 23.098452 47.701969 23.414049 47.329823 23.494141 46.611328 L 23.494141 46.609375 C 23.785163 43.98429 22.792766 41.328817 22.992188 39.683594 C 23.091928 38.860773 23.324934 38.350676 24.136719 37.867188 C 24.948503 37.383698 26.470238 37 29 37 C 32.138889 37 35.026837 36.359767 37.21875 35.195312 C 37.884064 34.841865 38.478309 34.420517 39 33.953125 L 39 38 C 39 38.944444 38.099715 40.213293 36.15625 41.242188 C 34.212785 42.271081 31.357143 43 28 43 A 1.0001 1.0001 0 1 0 28 45 C 31.642857 45 34.787215 44.228919 37.09375 43.007812 C 37.815887 42.625505 38.450221 42.185796 39 41.707031 L 39 44 C 39 45.037 38.231502 46.276803 36.650391 47.28125 C 35.069279 48.285697 32.745062 49 30 49 A 1.0001 1.0001 0 1 0 30 51 C 33.087938 51 35.762018 50.214303 37.722656 48.96875 C 38.192587 48.670213 38.619345 48.338634 39 47.982422 L 39 50 C 39 52.259333 36.238459 55 32 55 A 1.0001 1.0001 0 1 0 32 57 C 34.925173 57 37.39206 55.891633 39 54.259766 L 39 56 C 39 58.444444 36.928571 61 34 61 A 1.0001 1.0001 0 1 0 34 63 C 36.068023 63 37.781959 62.076251 39 60.720703 L 39 65 A 1.0001 1.0001 0 1 0 41 65 L 41 60.720703 C 42.218041 62.076251 43.931977 63 46 63 A 1.0001 1.0001 0 1 0 46 61 C 43.071429 61 41 58.444444 41 56 L 41 54.259766 C 42.60794 55.891633 45.074827 57 48 57 A 1.0001 1.0001 0 1 0 48 55 C 43.761541 55 41 52.259333 41 50 L 41 47.982422 C 41.380655 48.338634 41.807413 48.670213 42.277344 48.96875 C 44.237982 50.214303 46.912062 51 50 51 A 1.0001 1.0001 0 1 0 50 49 C 47.254938 49 44.930721 48.285697 43.349609 47.28125 C 41.768498 46.276803 41 45.037 41 44 L 41 41.707031 C 41.549779 42.185796 42.184113 42.625505 42.90625 43.007812 C 45.212785 44.228919 48.357143 45 52 45 A 1.0001 1.0001 0 1 0 52 43 C 48.642857 43 45.787215 42.271081 43.84375 41.242188 C 41.900285 40.213293 41 38.944444 41 38 L 41 33.953125 C 41.521691 34.420517 42.115936 34.841865 42.78125 35.195312 C 44.973163 36.359767 47.861111 37 51 37 C 53.529762 37 55.051497 37.383698 55.863281 37.867188 C 56.675066 38.350676 56.908077 38.860773 57.007812 39.683594 C 57.207285 41.329235 56.214111 43.985592 56.505859 46.611328 C 56.585949 47.329823 56.901548 47.701969 57.230469 48.240234 C 57.559719 48.779038 57.947827 49.37976 58.291016 50.015625 C 58.977393 51.287356 59.408268 52.611134 59.050781 53.683594 A 1.0005646 1.0005646 0 1 0 60.949219 54.316406 C 61.591732 52.388866 60.833654 50.516925 60.050781 49.066406 C 59.659345 48.341147 59.242828 47.700118 58.935547 47.197266 C 58.630518 46.698097 58.478552 46.234637 58.494141 46.388672 C 58.285889 44.514455 59.292715 41.920765 58.992188 39.441406 C 58.841923 38.201727 58.199934 36.930573 56.886719 36.148438 C 55.573503 35.366301 53.720238 35 51 35 C 48.138889 35 45.526837 34.390233 43.71875 33.429688 C 41.910663 32.469141 41 31.27381 41 30 L 41 24 C 41 23 41.01809 22.085895 41.220703 21.412109 C 41.423068 20.739161 41.71447 20.293081 42.53125 19.904297 C 42.53125 19.904297 42.533203 19.902344 42.533203 19.902344 A 1.0001 1.0001 0 0 0 42.564453 19.886719 A 1.0001 1.0001 0 0 0 42.683594 19.816406 A 1.0001 1.0001 0 0 0 42.957031 19.537109 C 45.024793 17.95678 46 16.22354 46 14.5 C 46 10.944444 42.956902 8 38.847656 8 z M 38.847656 10 C 42.04441 10 44 12.055556 44 14.5 C 44 15.270038 43.604368 16.033671 42.90625 16.84375 C 42.83865 16.655648 42.8177 16.44045 42.71875 16.271484 C 42.258603 15.485755 41.513963 14.992831 40.740234 14.699219 C 39.192778 14.111995 37.398672 14.154297 35.951172 14.154297 C 35.451833 14.154297 35.302975 14.012853 35.150391 13.724609 C 34.997806 13.436365 34.936506 12.920885 35.101562 12.359375 C 35.431682 11.236356 36.511004 10 38.847656 10 z M 53.953125 51 C 53.707031 51.012188 53.469062 51.116563 53.289062 51.289062 C 53.109062 51.479062 53 51.74 53 52 C 53 52.26 53.109063 52.520938 53.289062 52.710938 C 53.479062 52.890938 53.74 53 54 53 C 54.26 53 54.520938 52.890937 54.710938 52.710938 C 54.750937 52.660937 54.800078 52.610547 54.830078 52.560547 C 54.870078 52.500547 54.899922 52.440859 54.919922 52.380859 C 54.949922 52.320859 54.970469 52.259219 54.980469 52.199219 C 54.990469 52.129219 55 52.07 55 52 C 55 51.74 54.890938 51.479062 54.710938 51.289062 C 54.660937 51.249063 54.610547 51.199922 54.560547 51.169922 C 54.500547 51.129922 54.440859 51.100078 54.380859 51.080078 C 54.320859 51.050078 54.259219 51.029531 54.199219 51.019531 C 54.116719 51.002031 54.035156 50.995937 53.953125 51 z M 25.996094 51.011719 C 25.734844 51.011719 25.474063 51.104062 25.289062 51.289062 C 25.199062 51.389062 25.130078 51.499141 25.080078 51.619141 C 25.030078 51.739141 25 51.87 25 52 C 25 52.13 25.030078 52.260859 25.080078 52.380859 C 25.130078 52.500859 25.199063 52.610937 25.289062 52.710938 C 25.479062 52.890938 25.74 53 26 53 C 26.26 53 26.520937 52.890937 26.710938 52.710938 C 26.800938 52.610938 26.869922 52.500859 26.919922 52.380859 C 26.969922 52.260859 27 52.13 27 52 C 27 51.87 26.969922 51.739141 26.919922 51.619141 C 26.869922 51.499141 26.800937 51.389063 26.710938 51.289062 C 26.520938 51.104062 26.257344 51.011719 25.996094 51.011719 z M 25.169922 54.261719 C 24.785547 54.303438 24.440313 54.573203 24.320312 54.970703 C 24.150312 55.500703 24.450469 56.060703 24.980469 56.220703 C 25.080469 56.250703 25.179531 56.259766 25.269531 56.259766 C 25.699531 56.259766 26.100469 55.980781 26.230469 55.550781 C 26.390469 55.020781 26.090547 54.460781 25.560547 54.300781 C 25.430547 54.260781 25.298047 54.247812 25.169922 54.261719 z M 54.826172 54.261719 C 54.696641 54.24875 54.562188 54.260781 54.429688 54.300781 C 53.909687 54.460781 53.609531 55.019062 53.769531 55.539062 C 53.899531 55.979063 54.300469 56.259766 54.730469 56.259766 C 54.820469 56.259766 54.919531 56.240938 55.019531 56.210938 C 55.539531 56.050938 55.839687 55.490938 55.679688 54.960938 C 55.559688 54.563437 55.214766 54.300625 54.826172 54.261719 z M 26.986328 56.986328 A 1.0001 1.0001 0 0 0 26.076172 58.382812 C 27.186225 61.057508 27.330227 63.014295 27.21875 64.560547 C 27.107273 66.106799 26.683594 67.209135 26.683594 68.423828 C 26.683594 70.398024 28.127455 72.069906 29.419922 73.433594 C 30.712389 74.797281 31.998047 75.791016 31.998047 75.791016 A 1.0001 1.0001 0 0 0 32.609375 76 L 47.392578 76 A 1.0001 1.0001 0 0 0 48.003906 75.791016 C 48.003906 75.791016 49.289596 74.797379 50.582031 73.433594 C 51.874467 72.069808 53.318359 70.39774 53.318359 68.423828 C 53.318359 67.209135 52.894915 66.106735 52.783203 64.560547 C 52.671492 63.014359 52.814703 61.058051 53.923828 58.382812 A 1.0001 1.0001 0 1 0 52.076172 57.617188 C 50.8553 60.561949 50.658775 62.901766 50.789062 64.705078 C 50.919351 66.50839 51.318359 67.810521 51.318359 68.423828 C 51.318359 69.205916 50.299971 70.820926 49.128906 72.056641 C 48.07165 73.172264 47.204648 73.844199 47.007812 74 L 32.994141 74 C 32.797311 73.844242 31.930275 73.172127 30.873047 72.056641 C 29.702014 70.821078 28.683594 69.206632 28.683594 68.423828 C 28.683594 67.810521 29.082868 66.508576 29.212891 64.705078 C 29.342914 62.90158 29.145771 60.561491 27.923828 57.617188 A 1.0001 1.0001 0 0 0 26.986328 56.986328 z M 24.103516 57.345703 C 23.717266 57.309609 23.325859 57.501641 23.130859 57.869141 C 22.860859 58.349141 23.039297 58.960703 23.529297 59.220703 C 23.679297 59.310703 23.839766 59.339844 24.009766 59.339844 C 24.359766 59.339844 24.700625 59.160313 24.890625 58.820312 C 25.150625 58.340313 24.970469 57.730938 24.480469 57.460938 C 24.360469 57.395938 24.232266 57.357734 24.103516 57.345703 z M 55.892578 57.345703 C 55.762422 57.357891 55.632266 57.395938 55.509766 57.460938 C 55.029766 57.720937 54.849375 58.330312 55.109375 58.820312 C 55.289375 59.150313 55.640234 59.339844 55.990234 59.339844 C 56.150234 59.339844 56.320703 59.300703 56.470703 59.220703 C 56.950703 58.950703 57.129141 58.349375 56.869141 57.859375 C 56.674141 57.499375 56.283047 57.309141 55.892578 57.345703 z M 38.015625 67.568359 C 37.760625 67.569609 37.505547 67.669141 37.310547 67.869141 C 36.920547 68.259141 36.920313 68.889297 37.320312 69.279297 C 37.510312 69.469297 37.769531 69.570312 38.019531 69.570312 C 38.279531 69.570313 38.540469 69.469531 38.730469 69.269531 C 39.120469 68.879531 39.120703 68.249375 38.720703 67.859375 C 38.525703 67.664375 38.270625 67.567109 38.015625 67.568359 z M 41.984375 67.568359 C 41.729375 67.567109 41.474297 67.664375 41.279297 67.859375 C 40.879297 68.249375 40.879531 68.879531 41.269531 69.269531 C 41.459531 69.469531 41.720469 69.570312 41.980469 69.570312 C 42.230469 69.570312 42.489688 69.469297 42.679688 69.279297 C 43.069688 68.889297 43.079453 68.259141 42.689453 67.869141 C 42.494453 67.669141 42.239375 67.569609 41.984375 67.568359 z M 34.974609 70.431641 C 34.719609 70.434141 34.464531 70.535469 34.269531 70.730469 C 33.879531 71.120469 33.879531 71.760625 34.269531 72.140625 C 34.469531 72.340625 34.720469 72.429688 34.980469 72.429688 C 35.240469 72.429688 35.489453 72.330625 35.689453 72.140625 C 36.079453 71.740625 36.069688 71.110703 35.679688 70.720703 C 35.484688 70.525703 35.229609 70.429141 34.974609 70.431641 z M 45.025391 70.431641 C 44.770391 70.429141 44.515313 70.525703 44.320312 70.720703 C 43.930312 71.110703 43.920547 71.740625 44.310547 72.140625 C 44.510547 72.330625 44.769531 72.429688 45.019531 72.429688 C 45.279531 72.429688 45.530469 72.340625 45.730469 72.140625 C 46.120469 71.760625 46.120469 71.120469 45.730469 70.730469 C 45.535469 70.535469 45.280391 70.434141 45.025391 70.431641 z"/></svg>