<svg xmlns="http://www.w3.org/2000/svg"  viewBox="0 0 512 512" width="64px" height="64px"><path d="M 99.892578 148.00391 C 64.451094 148.33733 39.017766 156.76386 24.041016 173.19336 C 7.0100156 191.87236 9.9003906 214.15273 10.650391 218.42773 L 10.650391 232.89258 C 10.650391 280.36958 31.049859 307.85402 73.005859 316.91602 C 97.168859 322.13402 118.21395 328.61641 142.37695 343.31641 C 175.92695 363.71641 220.35981 364 253.25781 364 L 258.90625 364 C 291.80625 364 336.23911 363.71545 369.78711 343.31445 C 393.95111 328.62045 414.9962 322.13406 439.1582 316.91406 C 481.1172 307.85206 501.51367 280.36763 501.51367 232.89062 L 501.46875 216.49023 A 50.939 50.939 0 0 0 488.78516 174.91016 C 469.01916 153.19816 429.95655 145.68966 372.68555 152.59766 A 24.342 24.342 0 0 0 352.61133 168.77148 A 209.353 209.353 0 0 1 343.88086 190.37891 C 336.27486 206.53991 328.19519 217.62306 320.49219 227.41406 C 312.07519 228.61406 303.01862 228.35186 291.64062 226.75586 A 15.743 15.743 0 0 0 273.76758 241.23242 C 271.48558 272.96642 261.12794 278.80923 256.08594 279.74023 C 251.04394 278.80923 240.6853 272.96642 238.4043 241.23242 A 15.744 15.744 0 0 0 220.53125 226.75586 C 209.09625 228.35586 200.00764 228.61953 191.55664 227.39453 A 208.317 208.317 0 0 1 158.72852 166.54492 A 24.343 24.343 0 0 0 138.6543 150.37109 C 124.6333 148.68034 111.70641 147.89277 99.892578 148.00391 z M 101.75391 160.02734 C 112.58848 159.99459 124.42789 160.74316 137.21289 162.28516 A 12.28 12.28 0 0 1 147.36328 170.41211 C 147.51128 170.84611 147.67517 171.27689 147.82617 171.71289 C 104.58217 160.32789 74.187172 167.03606 55.826172 175.16406 C 37.913172 183.09206 27.893344 193.67317 24.527344 197.70117 C 24.217344 197.82117 23.909469 197.94313 23.605469 198.07812 A 41.159 41.159 0 0 1 33.035156 181.13672 C 45.796406 167.26172 69.250172 160.12559 101.75391 160.02734 z M 410.49609 162.15625 C 437.93002 162.16276 465.15064 166.94264 479.76758 182.83008 A 38.224 38.224 0 0 1 488.4082 198.01172 C 487.8022 197.74872 487.1865 197.5195 486.5625 197.3125 C 483.0775 193.3615 473.06122 183.37023 455.32422 175.99023 C 424.10622 163.00323 389.93247 166.71644 363.60547 173.64844 C 363.72247 173.31244 363.8518 172.97667 363.9668 172.63867 A 12.277 12.277 0 0 1 374.11719 164.51172 C 385.51156 163.13672 398.02613 162.15329 410.49609 162.15625 z M 103.63281 177.64062 C 119.08256 177.62575 135.75945 180.32302 153.25195 185.72852 C 154.32595 188.26852 155.43061 190.78572 156.59961 193.26172 A 221.371 221.371 0 0 0 172.91797 222.0625 C 137.42997 207.3455 117.49197 202.35466 86.542969 209.47266 C 72.965969 212.59366 61.042297 207.02056 50.529297 202.10156 C 47.307297 200.59456 44.218672 199.14859 41.263672 198.05859 A 83.221 83.221 0 0 1 61.371094 185.82812 C 73.958594 180.38213 88.183062 177.6555 103.63281 177.64062 z M 407.76758 179.3457 C 423.20108 179.1927 437.41173 181.66453 449.99023 186.76953 A 82.568 82.568 0 0 1 470.125 198.35938 C 467.405 199.40838 464.57772 200.72556 461.63672 202.10156 C 451.12072 207.02056 439.19805 212.59266 425.62305 209.47266 C 394.74005 202.37266 374.81766 207.32466 339.47266 221.97266 A 183.476 183.476 0 0 0 354.73242 195.48828 C 355.94342 192.91628 357.09103 190.30192 358.20703 187.66992 C 375.67753 182.27692 392.33408 179.4987 407.76758 179.3457 z M 479.99414 208.25195 A 9.671 9.671 0 0 1 485.68359 210.21875 A 9.518 9.518 0 0 1 489.50977 217.875 L 489.51367 232.89258 C 489.51367 274.99258 473.202 297.28555 436.625 305.18555 C 411.277 310.65955 389.15069 317.49555 363.55469 333.06055 A 106.613 106.613 0 0 1 339.62695 343.59961 A 37.91 37.91 0 0 0 328.45312 319.125 C 328.05313 318.73 327.65477 318.34833 327.25977 317.98633 A 35.345 35.345 0 0 0 292.11328 310.94141 A 111 111 0 0 1 221.11328 310.91602 A 35.256 35.256 0 0 0 186.2207 317.81641 A 38.307 38.307 0 0 0 173.64258 343.94531 A 107.584 107.584 0 0 1 148.60547 333.06445 C 123.00547 317.49945 100.88416 310.66445 75.535156 305.18945 C 38.958156 297.28945 22.646484 274.98853 22.646484 232.89453 L 22.646484 217.875 A 9.516 9.516 0 0 1 26.472656 210.21875 A 9.671 9.671 0 0 1 35.025391 208.63672 A 79.236 79.236 0 0 1 45.439453 212.97852 C 56.487453 218.14652 71.617609 225.22373 89.224609 221.17773 C 116.69061 214.86273 133.94367 218.87875 168.76367 233.34375 C 185.33267 240.22975 200.31045 241.71458 222.18945 238.64258 A 3.689 3.689 0 0 1 225.03711 239.43359 A 3.742 3.742 0 0 1 226.42969 242.0957 C 228.59469 272.2417 238.88058 289.88158 255.39258 291.76758 A 5.967 5.967 0 0 0 256.07227 291.80664 L 256.08203 291.80664 A 5.967 5.967 0 0 0 256.76367 291.76758 C 273.27367 289.88158 283.56356 272.2427 285.72656 242.0957 A 3.745 3.745 0 0 1 287.11719 239.43359 A 3.667 3.667 0 0 1 289.9668 238.64258 C 311.8468 241.71058 326.82358 240.22475 343.39258 233.34375 C 378.21258 218.87675 395.46564 214.86173 422.93164 221.17773 C 440.53964 225.22973 455.66975 218.15052 466.71875 212.97852 A 79.223 79.223 0 0 1 477.12891 208.63672 A 9.671 9.671 0 0 1 479.99414 208.25195 z M 50.349609 255.72461 A 6 6 0 0 0 45.566406 265.39062 A 76.488 76.488 0 0 0 51.554688 271.99023 A 6.0001839 6.0001839 0 0 0 60.013672 263.47852 A 66.442 66.442 0 0 1 55.037109 258.02148 A 6 6 0 0 0 50.349609 255.72461 z M 69.945312 272.84961 A 6 6 0 0 0 66 283.57227 C 77.327 292.23027 88.764 296.61914 100 296.61914 L 100.27539 296.61914 A 6.0000285 6.0000285 0 1 0 100.23828 284.61914 L 100.23633 284.61719 L 100.00977 284.61719 C 89.368766 284.61719 79.609156 278.87211 73.285156 274.03711 A 6 6 0 0 0 69.945312 272.84961 z M 209.125 320.97461 A 23.243 23.243 0 0 1 217.28125 322.28516 A 122.993 122.993 0 0 0 295.94141 322.3125 A 23.331 23.331 0 0 1 319.17578 326.85547 C 319.44578 327.10147 319.71633 327.35495 319.98633 327.62695 A 26.024 26.024 0 0 1 327.72461 346.19922 L 327.72461 346.72461 C 304.28761 351.88061 279.27681 352 258.88281 352 L 253.28125 352 C 233.21625 352 208.68222 351.88275 185.57422 346.96875 L 185.57422 346.19922 A 26.267 26.267 0 0 1 194.25977 326.72852 A 23.243 23.243 0 0 1 209.125 320.97461 z"/></svg>