<svg xmlns="http://www.w3.org/2000/svg"  viewBox="0 0 64 64" width="64px" height="64px"><path d="M 43.595703 4.984375 C 40.351138 4.993495 37.615403 5.2100031 33.78125 5.6132812 C 28.490723 6.1686404 23.523256 7.0218564 19.742188 8.0332031 A 1.0001 1.0001 0 0 0 19.107422 8.546875 L 17.863281 11 L 16 11 A 1.0001 1.0001 0 0 0 15.292969 11.292969 C 13.917371 12.668566 13.145455 14.545537 12.664062 16.082031 C 12.182671 17.618526 12.009766 18.861328 12.009766 18.861328 A 1.0001 1.0001 0 0 0 12 19 C 12 19.814778 12.57624 20.303867 13.117188 20.626953 C 13.491869 20.850736 14.014913 21.009685 14.517578 21.179688 L 20.013672 53.169922 A 1.0001 1.0001 0 0 0 20.283203 53.697266 C 20.283203 53.697266 21.203469 54.612221 23.072266 55.417969 C 24.941062 56.223716 27.834299 57 32 57 C 36.165701 57 39.058938 56.223716 40.927734 55.417969 C 42.796531 54.612221 43.716797 53.697266 43.716797 53.697266 A 1.0001 1.0001 0 0 0 43.982422 53.181641 L 45.849609 43.128906 A 1.0001 1.0001 0 0 0 45.851562 43.119141 C 45.988804 42.330735 45.920942 41.743796 45.964844 41.046875 C 46.155626 40.471957 46.403956 39.941452 46.513672 39.310547 A 1.0001 1.0001 0 0 0 46.515625 39.300781 L 48.859375 24.917969 A 1.0001 1.0001 0 0 0 47.755859 23.765625 C 34.254487 25.352679 25.938205 24.26332 23.265625 23.792969 L 23.263672 23.792969 C 23.045961 23.753879 22.890181 23.608491 22.835938 23.373047 L 22.828125 23.339844 A 1.0001 1.0001 0 0 0 22.828125 23.337891 C 22.738715 22.948413 22.994951 22.646507 23.390625 22.677734 C 25.986243 22.884211 28.908003 23 32 23 C 37.289163 23 42.076022 22.66447 45.591797 22.109375 C 47.349684 21.831827 48.784107 21.506137 49.857422 21.105469 C 50.394079 20.905135 50.841247 20.692294 51.224609 20.396484 C 51.607972 20.100675 52 19.634956 52 19 A 1.0001 1.0001 0 0 0 51.990234 18.861328 C 51.990234 18.861328 51.633246 16.190756 50.394531 13.71875 A 1.0001 1.0001 0 1 0 48.607422 14.613281 C 49.547198 16.488719 49.879376 18.422843 49.947266 18.839844 C 49.810995 18.936694 49.552806 19.082434 49.15625 19.230469 C 48.306596 19.547644 46.959784 19.867486 45.279297 20.132812 C 41.918356 20.663468 37.203837 21 32 21 C 28.957997 21 26.08515 20.885234 23.548828 20.683594 C 21.866502 20.550821 20.502313 22.144634 20.878906 23.785156 L 20.886719 23.820312 A 1.0001 1.0001 0 0 0 20.886719 23.822266 C 21.114348 24.810273 21.91452 25.584405 22.916016 25.761719 A 1.0001 1.0001 0 0 0 22.917969 25.761719 C 25.668127 26.24581 33.813224 27.231553 46.681641 25.857422 L 45.136719 35.339844 C 44.149676 33.541929 42.482637 32.551883 40.746094 32.25 C 36.741728 31.553536 33.054049 35.199068 33.029297 39.845703 A 1.0001 1.0001 0 0 0 33.029297 39.847656 C 33.010977 43.33474 35.32019 46.343544 38.478516 46.767578 C 40.347547 47.018584 42.079671 46.337994 43.443359 45.144531 L 42.091797 52.416016 C 42.000877 52.507316 41.601743 52.949532 40.134766 53.582031 C 38.524562 54.276237 35.918299 55 32 55 C 28.081701 55 25.475438 54.276284 23.865234 53.582031 C 22.40451 52.952228 22.010677 52.516605 21.916016 52.421875 L 16.396484 20.292969 A 1.0001 1.0001 0 0 0 15.681641 19.5 C 14.96296 19.297271 14.422882 19.07757 14.142578 18.910156 C 14.071707 18.867828 14.068074 18.87547 14.046875 18.869141 C 14.08013 18.644232 14.200498 17.866284 14.572266 16.679688 C 14.968965 15.413506 15.643689 13.986613 16.503906 13 L 18.478516 13 A 1.0001 1.0001 0 0 0 19.369141 12.453125 L 20.677734 9.8769531 C 24.266063 8.9470271 28.957049 8.129908 33.990234 7.6015625 C 37.641378 7.2175332 40.211863 7.034157 43.201172 7.0097656 C 43.498803 7.2794252 44.50188 8.4614538 45.402344 10.183594 C 43.45374 10.481811 34.460008 11.79226 24.152344 11.083984 A 1.0003853 1.0003853 0 1 0 24.015625 13.080078 C 35.794865 13.88947 47.164063 11.986328 47.164062 11.986328 A 1.0001 1.0001 0 0 0 47.949219 10.683594 C 46.839783 7.3552858 44.240234 5.21875 44.240234 5.21875 A 1.0001 1.0001 0 0 0 43.595703 4.984375 z M 39.912109 34.169922 C 40.075469 34.175812 40.239367 34.192357 40.402344 34.220703 C 41.675668 34.442059 42.709594 35.041081 43.400391 36.316406 C 43.907648 37.252886 44.083463 38.798474 44 40.691406 C 43.582436 41.827176 43.05746 42.834726 42.365234 43.509766 C 41.335772 44.513669 40.131197 44.971434 38.744141 44.785156 C 36.718466 44.513191 35.01562 42.460339 35.029297 39.857422 C 35.047344 36.469892 37.461711 34.081572 39.912109 34.169922 z"/></svg>