<svg xmlns="http://www.w3.org/2000/svg"  viewBox="0 0 50 50" width="50px" height="50px"><path d="M 18.328125 1.3242188 A 1.0001 1.0001 0 0 0 18.054688 1.3632812 C 18.054688 1.3632812 16.787414 1.7269767 15.396484 2.1835938 C 14.70102 2.4119021 13.973508 2.6644971 13.34375 2.9121094 C 12.713992 3.1597217 12.228835 3.3432849 11.779297 3.6933594 C 11.585389 3.8442404 11.515157 4.0696803 11.365234 4.2519531 C 10.808417 4.0906021 10.220046 4.0518893 9.6542969 4.3105469 C 9.1227095 4.5528882 8.769588 4.9788679 8.5214844 5.4628906 C 8.188093 5.4011792 7.9024578 5.2009379 7.5488281 5.25 C 6.9843153 5.3284858 6.5130635 5.5488683 5.8964844 5.828125 C 5.2799052 6.1073817 4.593799 6.4531069 3.9453125 6.7929688 C 2.6483394 7.4726923 1.5019531 8.1289062 1.5019531 8.1289062 A 1.0001 1.0001 0 0 0 1.7578125 9.9667969 C 1.7578125 9.9667969 2.637243 10.163501 3.1738281 10.289062 L 3.0742188 10.535156 A 1.0001 1.0001 0 0 0 3 10.912109 L 3 19.292969 A 1.0001 1.0001 0 0 0 3.1425781 19.806641 L 6.2011719 24.904297 A 1.0001 1.0001 0 0 0 6.5410156 25.246094 L 11 27.9375 L 11 28 L 9 28 A 1.0001 1.0001 0 0 0 8 29 L 8 32.269531 L 5.2695312 35.199219 A 1.0001 1.0001 0 0 0 5 35.880859 L 5 40.222656 C 5 41.74175 5.231665 43.251688 5.6894531 44.701172 A 1.0001 1.0001 0 0 0 5.7148438 44.771484 C 6.1233536 45.793462 6.4546659 46.975836 6.6757812 47.972656 C 6.8968966 48.969476 7.0008159 49.876823 7 49.992188 L 9 50.007812 C 9.0041841 49.416182 8.8682909 48.618243 8.6289062 47.539062 C 8.3942568 46.481229 8.0504327 45.247185 7.5976562 44.099609 C 7.201444 42.845095 7 41.537563 7 40.222656 L 7 36.275391 L 9.7304688 33.345703 A 1.0001 1.0001 0 0 0 10 32.664062 L 10 30 L 11.832031 30 A 1.0001 1.0001 0 0 0 12.158203 30 L 21.023438 30 L 22 32.283203 L 22 35 L 17.566406 35 A 1.0001 1.0001 0 1 0 17.566406 37 L 22.216797 37 C 22.663884 38.158828 23.7702 39 25.074219 39 L 25.201172 39 C 25.511588 39 25.796318 38.887485 26.085938 38.796875 C 26.376098 38.887855 26.661589 39 26.972656 39 L 27.099609 39 C 27.185092 39 27.265261 38.977318 27.347656 38.962891 C 27.092423 39.986781 26.97433 41.062668 27 42.027344 C 27.04613 43.747845 27.763585 45.030583 28.523438 45.992188 L 20.445312 45.992188 C 18.397633 45.992188 16.429102 45.20862 14.941406 43.802734 L 13.548828 42.488281 A 1.0001 1.0001 0 1 0 12.175781 43.941406 L 13.566406 45.255859 C 15.424711 47.011974 17.886993 47.992188 20.445312 47.992188 L 30.847656 47.992188 C 30.894454 47.992188 30.952868 47.992156 31 47.992188 A 1.0001 1.0001 0 0 0 31.001953 47.992188 C 31.929577 47.992819 32.980042 47.989329 34 47.990234 L 34 50 L 36 50 L 36 47.990234 C 37.808553 47.970088 39.629562 47.911223 41.28125 47.751953 C 42.924878 47.593463 44.396335 47.347456 45.583984 46.886719 C 46.177809 46.65635 46.709564 46.37135 47.146484 45.964844 C 47.583405 45.558337 47.916952 44.99252 47.992188 44.359375 A 1.0001 1.0001 0 0 0 48 44.246094 C 48.03788 35.460631 45.365337 27.661209 41.146484 20.070312 A 1.0001 1.0001 0 0 0 41.146484 20.068359 C 40.971188 19.753944 40.755223 19.46756 40.505859 19.212891 A 1.0001 1.0001 0 0 0 40.503906 19.210938 L 33.326172 11.908203 A 1.0001 1.0001 0 0 0 32.607422 11.609375 A 1.0001 1.0001 0 0 0 32.117188 11.740234 L 26.503906 14.945312 A 1.0001 1.0001 0 0 0 26 15.814453 L 26 18.828125 C 25.686899 19.26543 25.5 19.795232 25.5 20.359375 C 25.5 21.806214 26.693786 23 28.140625 23 L 33.140625 23 C 34.144077 25.568977 34.624688 28.22378 34.822266 30.951172 L 33.285156 29.894531 A 1.0001 1.0001 0 0 0 32.863281 29.724609 C 32.333192 29.280227 31.665033 29 30.925781 29 L 30.798828 29 C 30.488412 29 30.203682 29.112515 29.914062 29.203125 C 29.623902 29.112145 29.338411 29 29.027344 29 L 28.900391 29 C 28.585183 29 28.295015 29.11713 28 29.210938 C 27.704985 29.11713 27.414817 29 27.099609 29 L 26.972656 29 C 26.662025 29 26.376123 29.112201 26.085938 29.203125 C 25.796318 29.112515 25.511588 29 25.201172 29 L 25.074219 29 C 24.315719 29 23.63163 29.294523 23.095703 29.759766 L 22.601562 28.605469 A 1.0001 1.0001 0 0 0 21.970703 28.042969 C 22.648909 27.321028 22.97869 26.296294 22.990234 25.246094 C 24.019492 23.598123 24.296446 21.567701 24.039062 19.427734 C 24.6752 18.608617 25.075937 17.605729 24.982422 16.517578 L 24.982422 16.515625 L 24.960938 16.248047 A 1.0001 1.0001 0 0 0 24.960938 16.246094 C 24.870938 15.211655 24.192384 14.479216 23.369141 14.021484 L 22.996094 12.417969 A 1.0001 1.0001 0 0 0 22.957031 12.212891 L 22.908203 12.046875 L 22.90625 12.042969 A 1.0001 1.0001 0 0 0 22.90625 12.041016 L 22.207031 9.7128906 A 1.0001 1.0001 0 0 0 21.947266 9.2832031 L 17.966797 5.4179688 A 1.0001 1.0001 0 0 0 17.722656 5.2441406 C 17.731254 5.2305845 17.741432 5.2186112 17.75 5.2050781 C 18.533214 3.9680366 19.195312 2.828125 19.195312 2.828125 A 1.0001 1.0001 0 0 0 18.328125 1.3242188 z M 16.107422 4.0566406 C 16.081442 4.0978876 16.084864 4.0952287 16.058594 4.1367188 C 15.679201 4.7359479 15.272878 5.3536837 14.916016 5.8515625 C 14.559154 6.3494413 14.183142 6.7568509 14.171875 6.765625 C 13.660754 7.163864 13.050582 7.084723 12.744141 6.734375 A 1.0001 1.0001 0 0 0 11.988281 6.3945312 A 1.0001 1.0001 0 0 0 12.609375 5.8027344 C 12.685045 5.6051275 12.81647 5.420369 13.007812 5.2714844 C 13.019272 5.2625544 13.506117 4.9975752 14.076172 4.7734375 C 14.646226 4.5492998 15.345746 4.3051759 16.019531 4.0839844 C 16.065341 4.0689464 16.061912 4.0714676 16.107422 4.0566406 z M 10.771484 6.0898438 C 10.865249 6.1051132 10.955311 6.1470435 11.03125 6.2109375 A 1.0001 1.0001 0 0 0 11.675781 6.4453125 A 1.0001 1.0001 0 0 0 11.136719 6.8710938 C 11.085439 6.9550928 11.01502 7.0224139 10.916016 7.0683594 C 10.7753 7.1323814 10.626484 7.1257276 10.480469 7.0566406 A 1.0001 1.0001 0 0 0 10.107422 6.9628906 A 1.0001 1.0001 0 0 0 10.189453 6.59375 C 10.194353 6.3958897 10.300618 6.2146309 10.484375 6.1308594 A 1.0001 1.0001 0 0 0 10.486328 6.1289062 C 10.580252 6.0859653 10.67772 6.0745743 10.771484 6.0898438 z M 16.462891 7.1230469 L 16.857422 7.1289062 L 20.208984 10.382812 L 18.019531 9.1894531 A 1.0001 1.0001 0 0 0 18.017578 9.1894531 C 17.231657 8.7612893 16.29412 8.7064233 15.462891 9.0410156 L 10.132812 11.183594 C 9.2981341 11.519796 8.6567571 12.216046 8.3886719 13.074219 L 6.9667969 17.638672 A 1.0001 1.0001 0 0 0 7.1054688 18.515625 L 7.2910156 18.777344 L 8.3261719 20.382812 C 8.0814781 21.292034 8.1334851 22.288852 8.8125 23.074219 L 8.9863281 23.277344 A 1.0001 1.0001 0 0 0 8.9882812 23.279297 C 9.478051 23.845118 10.15553 24.105471 10.824219 24.34375 C 10.883965 24.427689 10.950637 24.500316 11.011719 24.582031 C 11.012029 24.582446 11.011409 24.58357 11.011719 24.583984 A 1.0001 1.0001 0 0 0 11 24.75 L 11 25.601562 L 7.7871094 23.662109 L 5 19.015625 L 5 11.107422 L 5.1601562 10.712891 C 5.6547243 10.809901 6.1589061 10.914309 6.6132812 10.982422 C 7.2825979 11.082755 7.7950576 11.166349 8.359375 11.087891 C 9.5855176 10.917079 10.379887 9.9812305 10.722656 8.8769531 C 11.07248 8.8797131 11.405136 9.0429106 11.744141 8.8886719 A 1.0001 1.0001 0 0 0 11.746094 8.8886719 C 11.929808 8.8045558 12.023735 8.6270086 12.177734 8.5058594 C 13.206969 9.0233938 14.426942 9.1022109 15.400391 8.34375 C 15.818041 8.0185085 16.108505 7.6176423 16.462891 7.1230469 z M 7.8242188 7.2304688 C 8.1394565 7.186733 8.422734 7.2620817 8.6445312 7.40625 A 1.0001 1.0001 0 0 0 9.1347656 7.5644531 A 1.0001 1.0001 0 0 0 9.0566406 8.0527344 C 9.0996056 8.5194699 8.7306868 9.0173311 8.0839844 9.1074219 C 8.0693018 9.1094632 7.5160273 9.0947291 6.9101562 9.0039062 C 6.3042853 8.9130836 5.5750655 8.7741323 4.8808594 8.6289062 C 4.8346709 8.6192439 4.8388131 8.6190718 4.7929688 8.609375 C 4.8352179 8.5871109 4.8304434 8.5867809 4.8730469 8.5644531 C 5.5013103 8.2351899 6.1625948 7.9031652 6.7207031 7.6503906 C 7.2788115 7.3976161 7.8097315 7.2324828 7.8242188 7.2304688 z M 16.638672 10.826172 C 16.784089 10.834406 16.928723 10.873843 17.060547 10.945312 L 21.115234 13.158203 L 21.5 14.820312 A 1.0001 1.0001 0 0 0 22.228516 15.564453 C 22.62047 15.664333 22.927254 15.965438 22.966797 16.419922 L 22.990234 16.6875 C 23.048144 17.3576 22.79849 17.995036 22.337891 18.457031 A 1.0001 1.0001 0 0 0 22.056641 19.314453 C 22.369624 21.365924 22.094551 23.115504 21.244141 24.365234 A 1.0001 1.0001 0 0 0 21.072266 25.005859 C 21.147956 25.966808 20.753486 26.678105 20.167969 26.925781 C 19.694969 27.12564 19.117289 27.031944 18.546875 26.595703 A 1.0001 1.0001 0 0 0 17.849609 26.394531 C 16.027586 26.557698 14.023328 25.456335 12.382812 23.103516 A 1.0001 1.0001 0 0 0 11.757812 22.695312 C 11.274584 22.598662 10.833786 22.353088 10.501953 21.970703 L 10.5 21.96875 L 10.324219 21.767578 A 1.0001 1.0001 0 0 0 10.324219 21.765625 C 10.02596 21.420651 10.024706 20.988834 10.226562 20.636719 A 1.0001 1.0001 0 0 0 10.199219 19.597656 L 8.9609375 17.673828 L 9.0234375 17.759766 L 10.298828 13.669922 C 10.388578 13.382617 10.602284 13.151093 10.880859 13.039062 L 16.208984 10.896484 C 16.347054 10.840908 16.493255 10.817938 16.638672 10.826172 z M 32.439453 13.859375 L 39.078125 20.613281 C 39.203949 20.742129 39.314126 20.888219 39.400391 21.042969 C 43.495363 28.411573 46.011 35.809341 45.994141 44.146484 C 45.977051 44.26126 45.943821 44.350559 45.783203 44.5 C 45.611995 44.65929 45.299394 44.851541 44.861328 45.021484 C 43.985196 45.361372 42.640341 45.612209 41.089844 45.761719 C 38.127296 46.047388 34.434611 45.997204 31.308594 45.992188 C 30.830727 45.667298 29.063052 44.3242 29 41.972656 C 28.97574 41.060787 29.142965 39.896966 29.441406 38.9375 C 29.600533 38.896987 29.757024 38.84608 29.914062 38.796875 C 30.203682 38.887485 30.488412 39 30.798828 39 L 30.925781 39 C 32.2298 39 33.336116 38.158828 33.783203 37 L 34.996094 37 C 34.994194 37.04552 35.002 37.087241 35 37.132812 A 1.0001 1.0001 0 0 0 35 37.214844 C 35.06163 38.808824 36.306576 39.758684 37.136719 40.509766 A 1.0001 1.0001 0 1 0 38.478516 39.027344 C 37.674221 38.299645 37.019925 37.465733 37.001953 37.142578 C 37.058461 35.817793 37.081407 34.497427 37.052734 33.183594 A 1.0001 1.0001 0 0 0 37.041016 32.791016 C 36.919121 28.737309 36.275264 24.744632 34.482422 20.859375 A 1.0001 1.0001 0 0 0 32.605469 21 L 28.140625 21 C 27.775464 21 27.5 20.724536 27.5 20.359375 C 27.5 20.060389 27.694356 19.810985 27.984375 19.738281 L 30.623047 19.076172 A 1.0001 1.0001 0 0 0 30.402344 17.101562 A 1.0001 1.0001 0 0 0 30.134766 17.136719 L 28 17.671875 L 28 16.394531 L 32.439453 13.859375 z M 19.740234 14.394531 A 0.974 0.974 0 0 0 19.740234 16.34375 A 0.974 0.974 0 0 0 19.740234 14.394531 z M 13.412109 17.408203 A 0.974 0.974 0 0 0 13.412109 19.357422 A 0.974 0.974 0 0 0 13.412109 17.408203 z M 19.792969 21.451172 C 19.613016 21.460359 19.441844 21.490234 19.308594 21.552734 C 18.775594 21.802734 18.962891 22.515625 18.962891 22.515625 C 18.962891 22.515625 18.643562 21.865734 17.976562 22.177734 C 17.309562 22.489734 16.962891 23.453125 16.962891 23.453125 C 16.962891 23.453125 18.401563 24.380359 19.601562 23.818359 C 20.801562 23.256359 20.962891 21.578125 20.962891 21.578125 C 20.962891 21.578125 20.332828 21.423609 19.792969 21.451172 z M 13 26.662109 C 13.759698 27.265567 14.571782 27.712859 15.416016 28 L 13 28 L 13 26.662109 z M 25.074219 31 L 25.201172 31 C 25.359975 31 25.512164 31.03574 25.652344 31.103516 L 26.087891 31.314453 L 26.523438 31.103516 C 26.660585 31.036958 26.813853 31 26.972656 31 L 27.099609 31 C 27.26457 31 27.416495 31.03687 27.554688 31.105469 L 28 31.326172 L 28.445312 31.105469 C 28.583505 31.036873 28.73543 31 28.900391 31 L 29.027344 31 C 29.186147 31 29.338336 31.03574 29.478516 31.103516 L 29.912109 31.314453 L 30.347656 31.103516 C 30.487836 31.035737 30.640025 31 30.798828 31 L 30.925781 31 C 31.515003 31 32 31.482078 32 32.123047 L 32 35.876953 C 32 36.517922 31.515003 37 30.925781 37 L 30.798828 37 C 30.640025 37 30.487836 36.96426 30.347656 36.896484 L 29.912109 36.685547 L 29.476562 36.896484 C 29.339415 36.963042 29.186147 37 29.027344 37 L 28.900391 37 C 28.73543 37 28.583505 36.96313 28.445312 36.894531 L 28 36.673828 L 27.554688 36.894531 C 27.416495 36.963127 27.26457 37 27.099609 37 L 26.972656 37 C 26.813853 37 26.661664 36.96426 26.521484 36.896484 L 26.087891 36.685547 L 25.652344 36.896484 C 25.512164 36.964263 25.359975 37 25.201172 37 L 25.074219 37 C 24.484997 37 24 36.517922 24 35.876953 L 24 32.123047 C 24 31.482078 24.484997 31 25.074219 31 z M 34 32.8125 L 34.912109 33.4375 C 34.920262 33.958364 34.943574 34.474177 34.9375 35 L 34 35 L 34 32.8125 z"/></svg>