<svg xmlns="http://www.w3.org/2000/svg"  viewBox="0 0 80 80" width="50px" height="50px"><path d="M 40 8 C 32.714844 8 25.605469 11.078125 25.605469 11.078125 L 25.078125 11.308594 L 25.007813 11.875 C 25.007813 11.875 24 19.890625 24 26 L 24 34 L 24.015625 34 C 24.046875 34.5625 24.210938 35.058594 24.355469 35.546875 C 24.433594 35.820313 24.511719 36.074219 24.5625 36.265625 C 24.613281 36.457031 24.625 36.644531 24.625 36.5 C 24.625 37.859375 25.765625 38.921875 27.109375 38.96875 C 27.292969 42.84375 29.160156 46.265625 32 48.519531 L 32 52.25 C 30.558594 52.6875 27.097656 53.804688 23.574219 55.46875 C 21.273438 56.554688 18.960938 57.863281 17.160156 59.414063 C 15.359375 60.964844 14 62.820313 14 65 L 14 71 L 66 71 L 66 65 C 66 62.820313 64.640625 60.964844 62.839844 59.414063 C 61.039063 57.863281 58.726563 56.554688 56.425781 55.46875 C 52.902344 53.804688 49.441406 52.6875 48 52.25 L 48 48.523438 C 50.839844 46.269531 52.707031 42.847656 52.890625 38.96875 C 54.234375 38.921875 55.375 37.859375 55.375 36.5 C 55.375 36.644531 55.386719 36.457031 55.4375 36.265625 C 55.488281 36.074219 55.566406 35.820313 55.644531 35.546875 C 55.789063 35.058594 55.953125 34.5625 55.984375 34 L 56 34 L 56 26 C 56 19.890625 54.992188 11.875 54.992188 11.875 L 54.921875 11.308594 L 54.394531 11.078125 C 54.394531 11.078125 47.285156 8 40 8 Z M 40 10 C 46.296875 10 52.292969 12.417969 53.074219 12.738281 C 53.179688 13.613281 53.855469 19.640625 53.945313 25 L 46.921875 25 C 46.429688 21.617188 43.515625 19 40 19 C 36.484375 19 33.570313 21.617188 33.078125 25 L 26.054688 25 C 26.144531 19.640625 26.820313 13.613281 26.925781 12.738281 C 27.707031 12.417969 33.703125 10 40 10 Z M 28 20 C 27.449219 20 27 20.449219 27 21 C 27 21.550781 27.449219 22 28 22 C 28.550781 22 29 21.550781 29 21 C 29 20.449219 28.550781 20 28 20 Z M 32 20 C 31.449219 20 31 20.449219 31 21 C 31 21.550781 31.449219 22 32 22 C 32.550781 22 33 21.550781 33 21 C 33 20.449219 32.550781 20 32 20 Z M 48 20 C 47.449219 20 47 20.449219 47 21 C 47 21.550781 47.449219 22 48 22 C 48.550781 22 49 21.550781 49 21 C 49 20.449219 48.550781 20 48 20 Z M 52 20 C 51.449219 20 51 20.449219 51 21 C 51 21.550781 51.449219 22 52 22 C 52.550781 22 53 21.550781 53 21 C 53 20.449219 52.550781 20 52 20 Z M 40 21 C 42.773438 21 45 23.226563 45 26 C 45 28.773438 42.773438 31 40 31 C 37.226563 31 35 28.773438 35 26 C 35 23.226563 37.226563 21 40 21 Z M 40 25 C 39.449219 25 39 25.449219 39 26 C 39 26.550781 39.449219 27 40 27 C 40.550781 27 41 26.550781 41 26 C 41 25.449219 40.550781 25 40 25 Z M 26 27 L 28.058594 27 C 27.414063 28.140625 27.007813 29.492188 27.003906 31.03125 C 26.949219 31.023438 26.960938 31 26.875 31 C 26.570313 31 26.277344 31.058594 26 31.148438 Z M 30.511719 27 L 33.078125 27 C 33.570313 30.382813 36.484375 33 40 33 C 43.515625 33 46.429688 30.382813 46.921875 27 L 49.542969 27 C 50.011719 27.582031 51 29.039063 51 31 L 51 34.304688 L 52.503906 33.421875 C 52.761719 33.273438 53 33.140625 53.167969 33.054688 C 53.1875 33.042969 53.195313 33.042969 53.214844 33.03125 C 53.671875 33.078125 54 33.398438 54 33.800781 C 54 33.875 53.882813 34.460938 53.730469 34.984375 C 53.652344 35.242188 53.574219 35.503906 53.507813 35.742188 C 53.441406 35.980469 53.375 36.148438 53.375 36.5 C 53.375 36.765625 53.15625 37 52.8125 37 L 51 37 L 51 38.367188 C 51 43.789063 47.089844 48.269531 41.941406 49.1875 L 41.65625 49.234375 L 41.441406 49.433594 C 41.050781 49.789063 40.558594 50 40 50 C 39.441406 50 38.949219 49.789063 38.558594 49.433594 L 38.34375 49.234375 L 38.058594 49.1875 C 32.910156 48.269531 29 43.789063 29 38.367188 L 29 37 L 27.1875 37 C 26.84375 37 26.625 36.765625 26.625 36.5 C 26.625 36.148438 26.558594 35.980469 26.492188 35.742188 C 26.425781 35.503906 26.347656 35.242188 26.269531 34.984375 C 26.117188 34.460938 26 33.875 26 33.800781 C 26 33.398438 26.328125 33.078125 26.785156 33.03125 C 26.804688 33.042969 26.8125 33.042969 26.832031 33.054688 C 27 33.140625 27.238281 33.273438 27.496094 33.421875 L 29 34.304688 L 29 31.050781 C 29 29.339844 29.601563 28.046875 30.511719 27 Z M 51.925781 27 L 54 27 L 54 31.148438 C 53.722656 31.058594 53.429688 31 53.125 31 C 53.039063 31 53.054688 31.019531 53 31.027344 L 53 31 C 53 29.351563 52.476563 27.988281 51.925781 27 Z M 34.5 33 C 33.671875 33 33 33.671875 33 34.5 C 33 35.328125 33.671875 36 34.5 36 C 35.328125 36 36 35.328125 36 34.5 C 36 33.671875 35.328125 33 34.5 33 Z M 45.5 33 C 44.671875 33 44 33.671875 44 34.5 C 44 35.328125 44.671875 36 45.5 36 C 46.328125 36 47 35.328125 47 34.5 C 47 33.671875 46.328125 33 45.5 33 Z M 34 49.824219 C 35.066406 50.382813 36.21875 50.8125 37.441406 51.058594 C 38.148438 51.621094 39.023438 52 40 52 C 40.972656 52 41.84375 51.621094 42.546875 51.0625 C 43.773438 50.820313 44.929688 50.390625 46 49.828125 L 46 54 C 46 55.167969 45.359375 56.742188 44.261719 57.953125 C 43.160156 59.164063 41.667969 60 40 60 C 36.5 60 34 57.5 34 54 Z M 32.015625 54.347656 C 32.195313 58.675781 35.617188 62 40 62 C 42.332031 62 44.339844 60.835938 45.738281 59.296875 C 47.050781 57.851563 47.878906 56.074219 47.980469 54.347656 C 49.582031 54.851563 52.535156 55.84375 55.574219 57.28125 C 57.773438 58.320313 59.960938 59.574219 61.535156 60.929688 C 63.109375 62.285156 64 63.679688 64 65 L 64 69 L 16 69 L 16 65 C 16 63.679688 16.890625 62.285156 18.464844 60.929688 C 20.039063 59.574219 22.226563 58.320313 24.425781 57.28125 C 27.464844 55.847656 30.414063 54.851563 32.015625 54.347656 Z M 20 65 C 19.449219 65 19 65.449219 19 66 C 19 66.550781 19.449219 67 20 67 C 20.550781 67 21 66.550781 21 66 C 21 65.449219 20.550781 65 20 65 Z M 24 65 C 23.449219 65 23 65.449219 23 66 C 23 66.550781 23.449219 67 24 67 C 24.550781 67 25 66.550781 25 66 C 25 65.449219 24.550781 65 24 65 Z M 28 65 C 27.449219 65 27 65.449219 27 66 C 27 66.550781 27.449219 67 28 67 C 28.550781 67 29 66.550781 29 66 C 29 65.449219 28.550781 65 28 65 Z M 32 65 C 31.449219 65 31 65.449219 31 66 C 31 66.550781 31.449219 67 32 67 C 32.550781 67 33 66.550781 33 66 C 33 65.449219 32.550781 65 32 65 Z M 36 65 C 35.449219 65 35 65.449219 35 66 C 35 66.550781 35.449219 67 36 67 C 36.550781 67 37 66.550781 37 66 C 37 65.449219 36.550781 65 36 65 Z M 40 65 C 39.449219 65 39 65.449219 39 66 C 39 66.550781 39.449219 67 40 67 C 40.550781 67 41 66.550781 41 66 C 41 65.449219 40.550781 65 40 65 Z M 44 65 C 43.449219 65 43 65.449219 43 66 C 43 66.550781 43.449219 67 44 67 C 44.550781 67 45 66.550781 45 66 C 45 65.449219 44.550781 65 44 65 Z M 48 65 C 47.449219 65 47 65.449219 47 66 C 47 66.550781 47.449219 67 48 67 C 48.550781 67 49 66.550781 49 66 C 49 65.449219 48.550781 65 48 65 Z M 52 65 C 51.449219 65 51 65.449219 51 66 C 51 66.550781 51.449219 67 52 67 C 52.550781 67 53 66.550781 53 66 C 53 65.449219 52.550781 65 52 65 Z M 56 65 C 55.449219 65 55 65.449219 55 66 C 55 66.550781 55.449219 67 56 67 C 56.550781 67 57 66.550781 57 66 C 57 65.449219 56.550781 65 56 65 Z M 60 65 C 59.449219 65 59 65.449219 59 66 C 59 66.550781 59.449219 67 60 67 C 60.550781 67 61 66.550781 61 66 C 61 65.449219 60.550781 65 60 65 Z"/></svg>