<svg xmlns="http://www.w3.org/2000/svg"  viewBox="0 0 50 50" width="50px" height="50px"><path d="M 24.978516 1 A 1.0001 1.0001 0 0 0 24.230469 1.3632812 C 24.230469 1.3632812 20.195969 6.2333682 16.160156 12.455078 C 12.124343 18.676788 8 26.165016 8 31.998047 C 8 41.37629 15.621682 49 25 49 C 34.378318 49 42 41.377304 42 32 C 42 26.166516 37.875658 18.676917 33.839844 12.455078 C 29.804029 6.2332392 25.769531 1.3632812 25.769531 1.3632812 A 1.0001 1.0001 0 0 0 24.978516 1 z M 25 3.6191406 C 25.959993 4.806348 28.811624 8.3826362 32.160156 13.544922 C 36.124342 19.656333 40 27.166484 40 32 C 40 40.296696 33.297682 47 25 47 C 16.702318 47 10 40.295804 10 31.998047 C 10 27.165078 13.875657 19.656212 17.839844 13.544922 C 21.188377 8.3827385 24.040006 4.8063463 25 3.6191406 z M 13.984375 30.986328 A 1.0001 1.0001 0 0 0 13 32 C 13 37.134702 15.777111 40.264576 18.472656 41.939453 C 21.168201 43.61433 23.859375 43.990234 23.859375 43.990234 A 1.0001694 1.0001694 0 1 0 24.140625 42.009766 C 24.140625 42.009766 21.831799 41.672108 19.527344 40.240234 C 17.222889 38.808361 15 36.438298 15 32 A 1.0001 1.0001 0 0 0 13.984375 30.986328 z"/></svg>