<svg xmlns="http://www.w3.org/2000/svg"  viewBox="0 0 340 340" width="85px" height="85px"><path d="M 165.56445 20.294922 A 68.2 68.2 0 0 0 139.58203 26.777344 C 125.53403 33.539344 107.64794 48.278125 102.21094 80.078125 A 22.443 22.443 0 0 1 96.736328 91.378906 L 77.921875 112.17773 A 10.91 10.91 0 0 0 75.066406 118.67188 A 10.555 10.555 0 0 0 85.599609 129.98047 L 95.330078 129.98047 L 97.904297 138.2168 A 4 4 0 0 0 101.72266 141.02344 L 151.85742 141.02344 A 25.083 25.083 0 0 1 165.33984 144.77148 C 174.78984 150.76548 183.98252 165.12266 174.10352 199.47266 C 173.83752 200.40066 173.51977 201.39372 173.13477 202.51172 C 171.12477 208.36172 161.55152 239.31567 170.60352 274.38867 A 344.954 344.954 0 0 1 178.9043 316.28906 A 4 4 0 0 0 182.86719 319.7793 A 4.243 4.243 0 0 0 183.38086 319.74805 A 4 4 0 0 0 186.83984 315.27148 A 353.006 353.006 0 0 0 178.34766 272.38672 C 169.86766 239.52972 178.81727 210.58033 180.69727 205.11133 C 181.12727 203.86333 181.48406 202.74264 181.78906 201.68164 C 193.03606 162.57064 181.38105 145.46972 169.62305 138.01172 A 33.073 33.073 0 0 0 151.85547 133.01953 L 104.66016 133.01953 L 102.08594 124.7832 A 4 4 0 0 0 98.267578 121.97656 L 85.599609 121.97656 A 2.532 2.532 0 0 1 83.730469 121.16211 A 2.561 2.561 0 0 1 83.050781 119.21875 A 2.907 2.907 0 0 1 83.857422 117.53711 L 102.67383 96.738281 A 30.423 30.423 0 0 0 110.09961 81.425781 C 113.99961 58.594781 125.09064 42.632328 143.05664 33.986328 A 60.132 60.132 0 0 1 200.37109 37.1875 A 50.019 50.019 0 0 1 224.37109 78.269531 L 224.37109 78.505859 C 224.38009 78.767859 225.20903 104.8383 215.20703 117.6543 A 134 134 0 0 0 202.4082 137.70703 A 45.876 45.876 0 0 0 197.12305 160.07227 C 197.30005 167.57227 197.83303 175.02761 198.70703 182.22461 A 45.914 45.914 0 0 0 229.03125 220.1875 L 262.88672 232.23438 A 24.747 24.747 0 0 1 272.08594 238.35547 A 31.981 31.981 0 0 1 280.95703 260.9082 L 280.95703 315.78516 A 4 4 0 0 0 288.95703 315.78516 L 288.95703 260.90625 A 39.935 39.935 0 0 0 277.81055 232.76562 A 32.676 32.676 0 0 0 265.59961 224.70508 L 231.7168 212.64844 A 37.96 37.96 0 0 1 206.65234 181.25781 C 205.81034 174.31781 205.29795 167.12586 205.12695 159.88086 A 37.865 37.865 0 0 1 209.49414 141.42773 A 126.148 126.148 0 0 1 221.51367 122.57422 C 233.07067 107.76622 232.44214 80.575359 232.36914 78.318359 A 58.091 58.091 0 0 0 204.58984 30.390625 A 68.2 68.2 0 0 0 165.56445 20.294922 z M 111.35352 149.15625 A 12.567 12.567 0 0 0 100.00586 156.38281 L 97.851562 161 A 12.913 12.913 0 0 0 97.832031 172.19531 A 12.743 12.743 0 0 0 112.27148 179.04102 L 130.63672 174.68555 A 4.1 4.1 0 0 1 135.67969 178.67383 L 135.67969 190.69922 A 15.939 15.939 0 0 1 125.59961 205.69922 C 125.29161 205.81422 124.97344 205.92625 124.64844 206.03125 C 124.56344 206.05825 124.47948 206.08709 124.39648 206.12109 L 77.119141 224.93164 A 41.215 41.215 0 0 0 51.107422 265.00586 L 51.130859 265.49414 L 51.03125 315.77539 A 4 4 0 0 0 55.023438 319.7832 L 55.03125 319.7832 A 4 4 0 0 0 59.03125 315.79297 L 59.130859 265.4082 C 59.130859 265.3352 59.131 265.2605 59.125 265.1875 L 59.099609 264.64258 A 33.209 33.209 0 0 1 80.076172 232.36523 L 127.23438 213.59961 C 127.62738 213.47061 128.01248 213.33536 128.39648 213.19336 A 23.977 23.977 0 0 0 143.67969 190.69922 L 143.67969 178.66992 A 12.1 12.1 0 0 0 128.79102 166.90039 L 110.42578 171.25391 A 4.791 4.791 0 0 1 105.01367 168.66797 A 5.024 5.024 0 0 1 105.10156 164.37891 L 107.25391 159.76562 A 4.54 4.54 0 0 1 111.35352 157.1543 L 143.42773 157.1543 A 17.126 17.126 0 0 1 160.51953 172.36328 C 161.40753 181.85128 158.55053 192.64823 156.76953 198.24023 A 140.99 140.99 0 0 0 152.96484 212.97852 C 149.85584 228.29652 145.57661 256.93939 151.84961 276.65039 C 156.35761 290.82139 158.63786 305.98975 159.75586 316.21875 A 4 4 0 0 0 163.72852 319.78516 A 4.064 4.064 0 0 0 164.16797 319.76172 A 4 4 0 0 0 167.70898 315.34961 C 166.54998 304.75561 164.18166 289.02366 159.47266 274.22266 C 153.74866 256.23466 157.85069 229.12236 160.80469 214.56836 A 133.21 133.21 0 0 1 164.39062 200.66992 C 166.35663 194.49892 169.50442 182.51619 168.48242 171.61719 C 167.30342 159.01719 156.29773 149.15625 143.42773 149.15625 L 111.35352 149.15625 z"/></svg>