<svg xmlns="http://www.w3.org/2000/svg"  viewBox="0 0 80 80" width="50px" height="50px"><path d="M 39.712891 4 C 33.249676 4 29.45028 8.5998926 29.175781 13.345703 L 26.859375 17.279297 C 26.274878 18.273933 26.652226 19.5779 27.681641 20.103516 A 1.0001 1.0001 0 0 0 27.746094 20.134766 L 29 20.664062 L 29 21.832031 A 1.0001 1.0001 0 0 0 29 22.158203 L 29 23 C 29 24.210673 29.611482 25.257499 30.457031 25.941406 C 31.302581 26.625314 32.383542 27 33.5 27 L 34 27 L 34 27.402344 C 32.33855 28.26669 28.819354 30.187075 28.597656 30.308594 C 25.512994 30.350784 22.657436 30.954232 20.492188 32.453125 C 18.249368 34.005716 16.828125 36.550329 16.828125 39.896484 C 16.828125 41.527356 17.055466 42.789953 17.226562 43.710938 C 17.397661 44.631921 17.427333 45.18164 17.394531 45.28125 A 1.0001 1.0001 0 0 0 17.392578 45.289062 C 17.367158 45.367942 17.130013 45.900104 16.830078 46.576172 C 16.530143 47.25224 16.15593 48.133467 15.791016 49.177734 C 15.061187 51.266269 14.365234 54.013336 14.365234 57.140625 A 1.0001 1.0001 0 0 0 14.861328 58.003906 L 21.498047 61.865234 A 1.0002933 1.0002933 0 0 0 21.998047 62 A 1.0002933 1.0002933 0 0 0 22 62 C 22.00064 62 22.001313 62.000001 22.001953 62 A 1.0002933 1.0002933 0 0 0 22.685547 61.726562 C 22.692975 61.719919 22.703708 61.717786 22.710938 61.710938 C 22.718028 61.703453 22.721645 61.693244 22.728516 61.685547 A 1.0002933 1.0002933 0 0 0 23 61 C 23 60.998723 23.000006 60.997371 23 60.996094 A 1.0002933 1.0002933 0 0 0 22.728516 60.316406 C 22.721304 60.307947 22.718426 60.297383 22.710938 60.289062 C 22.699956 60.278081 22.685288 60.272113 22.673828 60.261719 A 1.0002933 1.0002933 0 0 0 22.501953 60.134766 L 22.476562 60.119141 L 22.472656 60.117188 C 22.472109 60.1169 22.471251 60.117474 22.470703 60.117188 L 16.419922 56.597656 C 16.497852 54.000327 17.04414 51.651033 17.677734 49.837891 C 18.017695 48.865033 18.369295 48.037932 18.658203 47.386719 C 18.946011 46.737986 19.159755 46.325693 19.294922 45.908203 L 19.294922 45.90625 C 19.588103 45.013745 19.360432 44.255525 19.191406 43.345703 C 19.022254 42.435188 18.828125 41.344613 18.828125 39.896484 C 18.828125 37.08364 19.870428 35.316315 21.630859 34.097656 C 23.391291 32.878998 25.967864 32.273438 28.914062 32.273438 A 1.0001 1.0001 0 0 0 29.394531 32.150391 C 29.394531 32.150391 34.304708 29.46581 35.447266 28.894531 A 1.0001 1.0001 0 0 0 36 28 L 36 26 A 1.0001 1.0001 0 0 0 35 25 L 33.5 25 C 32.847458 25 32.177044 24.760561 31.714844 24.386719 C 31.252643 24.012876 31 23.558327 31 23 L 35.212891 23 C 37.316296 23 39 24.683704 39 26.787109 L 39 42 A 1.0001 1.0001 0 0 0 39.019531 42.205078 C 39.012514 42.303131 39 42.399508 39 42.5 C 39 44.5 38.96221 46.808943 38.433594 48.289062 C 38.169287 49.029122 37.818551 49.523362 37.363281 49.806641 C 36.955618 50.060298 36.384376 50.188122 35.5 50.060547 C 34.353936 48.806709 32.851858 48.169707 31.451172 48.607422 C 29.93487 49.081266 29 50.75 29 53 C 29 55.166667 29.535912 57.146453 30.71875 58.625 C 31.901588 60.103547 33.75 61 36 61 L 43.5 61 C 44.340812 61 45 61.659188 45 62.5 C 45 63.340812 44.340812 64 43.5 64 L 37.5 64 C 35.578812 64 34 65.578812 34 67.5 C 34 69.421188 35.578812 71 37.5 71 L 41 71 C 42.116666 71 43 71.883334 43 73 L 43 74 L 32.994141 74 C 32.797311 73.844242 31.930275 73.172127 30.873047 72.056641 C 29.702014 70.821078 28.683594 69.206632 28.683594 68.423828 C 28.683594 67.810521 29.082868 66.508576 29.212891 64.705078 C 29.342914 62.90158 29.145771 60.561491 27.923828 57.617188 A 1.0001 1.0001 0 0 0 26.986328 56.986328 A 1.0001 1.0001 0 0 0 26.076172 58.382812 C 27.186225 61.057508 27.330227 63.014295 27.21875 64.560547 C 27.107273 66.106799 26.683594 67.209135 26.683594 68.423828 C 26.683594 70.398024 28.127455 72.069906 29.419922 73.433594 C 30.712389 74.797281 31.998047 75.791016 31.998047 75.791016 A 1.0001 1.0001 0 0 0 32.609375 76 L 43.832031 76 A 1.0001 1.0001 0 0 0 44.158203 76 L 47.392578 76 A 1.0001 1.0001 0 0 0 48.003906 75.791016 C 48.003906 75.791016 49.289596 74.797379 50.582031 73.433594 C 51.874467 72.069808 53.318359 70.39774 53.318359 68.423828 C 53.318359 67.209135 52.894915 66.106735 52.783203 64.560547 C 52.671492 63.014359 52.814703 61.058051 53.923828 58.382812 A 1.0001 1.0001 0 1 0 52.076172 57.617188 C 50.8553 60.561949 50.658775 62.901766 50.789062 64.705078 C 50.919351 66.50839 51.318359 67.810521 51.318359 68.423828 C 51.318359 69.205916 50.299971 70.820926 49.128906 72.056641 C 48.07165 73.172264 47.204648 73.844199 47.007812 74 L 45 74 L 45 73 C 45 70.802666 43.197334 69 41 69 L 37.5 69 C 36.659188 69 36 68.340812 36 67.5 C 36 66.659188 36.659188 66 37.5 66 L 43.5 66 C 45.421188 66 47 64.421188 47 62.5 C 47 60.578812 45.421188 59 43.5 59 L 36 59 C 34.25 59 33.098412 58.396453 32.28125 57.375 C 31.464088 56.353547 31 54.833333 31 53 C 31 51.25 31.56513 50.668734 32.048828 50.517578 C 32.532526 50.366423 33.39143 50.590848 34.21875 51.625 A 1.0004882 1.0004882 0 0 0 34.224609 51.630859 C 36.326655 54.74146 38.805733 56 42 56 C 44.333333 56 46.201476 54.758314 47.341797 52.976562 C 48.482118 51.194812 49 48.898148 49 46.5 C 49 42.394444 46.733609 39.805791 44.298828 39.044922 C 43.690133 38.854705 43.066771 38.772722 42.464844 38.810547 C 41.95285 38.842716 41.458365 38.967819 41 39.183594 L 41 26.787109 C 41 23.602514 38.397486 21 35.212891 21 L 31 21 L 31 20 A 1.0001 1.0001 0 0 0 30.388672 19.078125 L 28.589844 18.318359 C 28.583344 18.312159 28.579224 18.301129 28.583984 18.292969 L 28.582031 18.292969 L 30.951172 14.271484 A 1.0001 1.0001 0 0 0 31.089844 13.779297 C 31.142126 9.9009441 34.006567 6 39.712891 6 C 44.720214 6 48.703125 10.033393 48.703125 14.669922 C 48.703125 17.327807 47.651623 18.925325 46.507812 20.492188 C 45.306658 22.137606 43.998047 24.147922 43.998047 26.5 L 43.998047 28 A 1.0001 1.0001 0 0 0 44.550781 28.894531 C 45.693267 29.466238 50.605469 32.150391 50.605469 32.150391 A 1.0001 1.0001 0 0 0 51.085938 32.273438 C 54.032137 32.273438 56.608709 32.878998 58.369141 34.097656 C 60.129572 35.316315 61.171875 37.08364 61.171875 39.896484 C 61.171875 41.344937 60.977237 42.435378 60.808594 43.345703 C 60.639951 44.256028 60.413343 45.013989 60.705078 45.90625 C 60.840126 46.323928 61.053856 46.737273 61.341797 47.386719 C 61.630517 48.037921 61.98059 48.863067 62.320312 49.835938 C 62.953466 51.649104 63.500248 54.000228 63.578125 56.597656 L 57.496094 60.134766 A 1.0012748 1.0012748 0 0 0 57.310547 60.275391 C 57.303944 60.281087 57.295581 60.283196 57.289062 60.289062 C 57.283196 60.295581 57.281087 60.303944 57.275391 60.310547 A 1.0012748 1.0012748 0 0 0 57 61 A 1.0012748 1.0012748 0 0 0 57.277344 61.693359 C 57.282094 61.698582 57.28421 61.705815 57.289062 61.710938 C 57.295581 61.716804 57.303944 61.718913 57.310547 61.724609 A 1.0012748 1.0012748 0 0 0 57.802734 61.980469 C 57.808014 61.981532 57.813063 61.983414 57.818359 61.984375 A 1.0012748 1.0012748 0 0 0 58.199219 61.980469 A 1.0012748 1.0012748 0 0 0 58.503906 61.865234 L 65.136719 58.003906 A 1.0001 1.0001 0 0 0 65.632812 57.140625 C 65.632812 54.013448 64.938286 51.266243 64.208984 49.177734 C 63.844333 48.13348 63.469671 47.252251 63.169922 46.576172 C 62.870173 45.900093 62.632938 45.368237 62.607422 45.289062 A 1.0001 1.0001 0 0 0 62.605469 45.285156 C 62.572199 45.183417 62.602868 44.62991 62.773438 43.708984 C 62.944043 42.788059 63.171875 41.527031 63.171875 39.896484 C 63.171875 36.550329 61.748678 34.005716 59.505859 32.453125 C 57.340138 30.953904 54.485834 30.350532 51.400391 30.308594 C 51.178514 30.187004 47.657638 28.266007 45.998047 27.402344 L 45.998047 26.5 C 45.998047 24.928078 46.988203 23.226456 48.123047 21.671875 C 49.315237 20.038737 50.703125 17.882037 50.703125 14.669922 C 50.703172 8.8944507 45.793567 4 39.712891 4 z M 42.597656 40.810547 C 42.933097 40.790048 43.309867 40.832796 43.701172 40.955078 C 45.266391 41.444209 47 43.105556 47 46.5 C 47 48.601852 46.517882 50.555188 45.658203 51.898438 C 44.798524 53.241686 43.666667 54 42 54 C 39.939732 54 38.586438 53.27267 37.251953 51.912109 C 37.661802 51.810188 38.077527 51.71769 38.417969 51.505859 C 39.368949 50.914138 39.955713 49.970878 40.316406 48.960938 C 41.037792 46.941057 41 44.5 41 42.5 C 41 41.671296 41.284495 41.299322 41.740234 41.042969 C 41.968104 40.914792 42.262215 40.831046 42.597656 40.810547 z M 26.048828 51 C 25.966016 50.995937 25.883281 51.002031 25.800781 51.019531 C 25.740781 51.029531 25.679141 51.050078 25.619141 51.080078 C 25.559141 51.100078 25.499219 51.129922 25.449219 51.169922 C 25.389219 51.209922 25.339063 51.249063 25.289062 51.289062 C 25.199062 51.389062 25.130078 51.499141 25.080078 51.619141 C 25.030078 51.739141 25 51.87 25 52 C 25 52.13 25.030078 52.260859 25.080078 52.380859 C 25.130078 52.500859 25.199063 52.610937 25.289062 52.710938 C 25.479062 52.890938 25.74 53 26 53 C 26.26 53 26.520937 52.890937 26.710938 52.710938 C 26.800938 52.610938 26.869922 52.500859 26.919922 52.380859 C 26.979922 52.260859 27 52.13 27 52 C 27 51.87 26.979922 51.739141 26.919922 51.619141 C 26.869922 51.499141 26.800937 51.389063 26.710938 51.289062 C 26.538438 51.116562 26.297266 51.012188 26.048828 51 z M 54.09375 51.005859 C 53.800781 50.976797 53.499063 51.079062 53.289062 51.289062 C 53.199063 51.389062 53.130078 51.499141 53.080078 51.619141 C 53.030078 51.739141 53 51.87 53 52 C 53 52.13 53.030078 52.260859 53.080078 52.380859 C 53.130078 52.500859 53.199062 52.610937 53.289062 52.710938 C 53.479062 52.890938 53.74 53 54 53 C 54.13 53 54.260859 52.969922 54.380859 52.919922 C 54.510859 52.869922 54.610937 52.800938 54.710938 52.710938 C 54.800937 52.610938 54.869922 52.500859 54.919922 52.380859 C 54.969922 52.260859 55 52.13 55 52 C 55 51.87 54.969922 51.739141 54.919922 51.619141 C 54.869922 51.499141 54.800938 51.389063 54.710938 51.289062 C 54.610938 51.199063 54.510859 51.130078 54.380859 51.080078 C 54.288359 51.040078 54.191406 51.015547 54.09375 51.005859 z M 25.169922 54.261719 C 24.785547 54.303438 24.440313 54.573203 24.320312 54.970703 C 24.150312 55.500703 24.450469 56.060703 24.980469 56.220703 C 25.080469 56.250703 25.179531 56.259766 25.269531 56.259766 C 25.699531 56.259766 26.100469 55.980781 26.230469 55.550781 C 26.390469 55.020781 26.090547 54.460781 25.560547 54.300781 C 25.430547 54.260781 25.298047 54.247812 25.169922 54.261719 z M 54.830078 54.261719 C 54.701953 54.24875 54.569453 54.260781 54.439453 54.300781 C 53.909453 54.460781 53.609531 55.019062 53.769531 55.539062 C 53.899531 55.979063 54.300469 56.259766 54.730469 56.259766 C 54.820469 56.259766 54.919531 56.240938 55.019531 56.210938 C 55.549531 56.050938 55.839687 55.490938 55.679688 54.960938 C 55.559687 54.563437 55.214453 54.300625 54.830078 54.261719 z M 24.103516 57.345703 C 23.717266 57.309609 23.325859 57.501641 23.130859 57.869141 C 22.860859 58.349141 23.039297 58.960703 23.529297 59.220703 C 23.679297 59.310703 23.839766 59.339844 24.009766 59.339844 C 24.359766 59.339844 24.700625 59.160313 24.890625 58.820312 L 24.880859 58.820312 C 25.150859 58.340313 24.970469 57.730938 24.480469 57.460938 C 24.360469 57.395938 24.232266 57.357734 24.103516 57.345703 z M 55.892578 57.345703 C 55.762422 57.357891 55.632266 57.395938 55.509766 57.460938 C 55.029766 57.720937 54.849375 58.330312 55.109375 58.820312 C 55.289375 59.150313 55.640234 59.339844 55.990234 59.339844 C 56.150234 59.339844 56.320703 59.300703 56.470703 59.220703 C 56.950703 58.950703 57.129141 58.349375 56.869141 57.859375 C 56.674141 57.499375 56.283047 57.309141 55.892578 57.345703 z"/></svg>