<svg xmlns="http://www.w3.org/2000/svg"  viewBox="0 0 24 24" width="24px" height="24px"><path d="M 4 0 C 2.8974609 0 2 0.8969727 2 2 L 2 22 C 2 23.103027 2.8974609 24 4 24 L 6.5 24 C 6.7763672 24 7 23.776367 7 23.5 L 7 19 L 17 19 L 17 23.5 C 17 23.776367 17.223633 24 17.5 24 L 20 24 C 21.102539 24 22 23.103027 22 22 L 22 2 C 22 0.8969727 21.102539 0 20 0 L 17.5 0 C 17.223633 0 17 0.2236328 17 0.5 L 17 5 L 7 5 L 7 0.5 C 7 0.2236328 6.7763672 0 6.5 0 L 4 0 z M 4 1 L 4 1.5 C 4 1.7763672 4.2236328 2 4.5 2 C 4.7763672 2 5 1.7763672 5 1.5 L 5 1 L 6 1 L 6 5.5 C 6 5.7763672 6.2236328 6 6.5 6 L 17.5 6 C 17.776367 6 18 5.7763672 18 5.5 L 18 1 L 19 1 L 19 1.5 C 19 1.7763672 19.223633 2 19.5 2 C 19.776367 2 20 1.7763672 20 1.5 L 20 1 C 20.551758 1 21 1.4487305 21 2 L 21 22 C 21 22.55127 20.551758 23 20 23 L 20 22.5 C 20 22.223633 19.776367 22 19.5 22 C 19.223633 22 19 22.223633 19 22.5 L 19 23 L 18 23 L 18 18.5 C 18 18.223633 17.776367 18 17.5 18 L 6.5 18 C 6.2236328 18 6 18.223633 6 18.5 L 6 23 L 5 23 L 5 22.5 C 5 22.223633 4.7763672 22 4.5 22 C 4.2236328 22 4 22.223633 4 22.5 L 4 23 C 3.4482422 23 3 22.55127 3 22 L 3 2 C 3 1.4487305 3.4482422 1 4 1 z M 4.5 4.8183594 C 4.2236328 4.8183594 4 5.0419922 4 5.3183594 L 4 7.2285156 C 4 7.5048828 4.2236328 7.7285156 4.5 7.7285156 C 4.7763672 7.7285156 5 7.5048828 5 7.2285156 L 5 5.3183594 C 5 5.0419922 4.7763672 4.8183594 4.5 4.8183594 z M 19.5 4.8183594 C 19.223633 4.8183594 19 5.0419922 19 5.3183594 L 19 7.2285156 C 19 7.5048828 19.223633 7.7285156 19.5 7.7285156 C 19.776367 7.7285156 20 7.5048828 20 7.2285156 L 20 5.3183594 C 20 5.0419922 19.776367 4.8183594 19.5 4.8183594 z M 6.5 7 C 6.2236328 7 6 7.2236328 6 7.5 L 6 16.5 C 6 16.776367 6.2236328 17 6.5 17 L 17.5 17 C 17.776367 17 18 16.776367 18 16.5 L 18 7.5 C 18 7.2236328 17.776367 7 17.5 7 L 6.5 7 z M 7 8 L 17 8 L 17 16 L 7 16 L 7 8 z M 4.5 10.544922 C 4.2236328 10.544922 4 10.768555 4 11.044922 L 4 12.955078 C 4 13.231445 4.2236328 13.455078 4.5 13.455078 C 4.7763672 13.455078 5 13.231445 5 12.955078 L 5 11.044922 C 5 10.768555 4.7763672 10.544922 4.5 10.544922 z M 19.5 10.544922 C 19.223633 10.544922 19 10.768555 19 11.044922 L 19 12.955078 C 19 13.231445 19.223633 13.455078 19.5 13.455078 C 19.776367 13.455078 20 13.231445 20 12.955078 L 20 11.044922 C 20 10.768555 19.776367 10.544922 19.5 10.544922 z M 4.5 16.273438 C 4.2236328 16.273438 4 16.49707 4 16.773438 L 4 18.681641 C 4 18.958008 4.2236328 19.181641 4.5 19.181641 C 4.7763672 19.181641 5 18.958008 5 18.681641 L 5 16.773438 C 5 16.49707 4.7763672 16.273438 4.5 16.273438 z M 19.5 16.273438 C 19.223633 16.273438 19 16.49707 19 16.773438 L 19 18.681641 C 19 18.958008 19.223633 19.181641 19.5 19.181641 C 19.776367 19.181641 20 18.958008 20 18.681641 L 20 16.773438 C 20 16.49707 19.776367 16.273438 19.5 16.273438 z"/></svg>