<svg xmlns="http://www.w3.org/2000/svg"  viewBox="0 0 80 80" width="50px" height="50px"><path d="M 64.003906 9.007813 C 63.121094 9.007813 62.238281 9.339844 61.570313 10.007813 L 58.582031 13 L 48.640625 13 L 48.363281 13.230469 L 14.328125 41.257813 L 8.585938 47 L 33 71.414063 L 38.742188 65.671875 L 67 31.359375 L 67 21.414063 L 69.988281 18.429688 C 71.328125 17.09375 71.328125 14.898438 69.988281 13.5625 L 66.4375 10.007813 C 65.769531 9.339844 64.886719 9.007813 64.003906 9.007813 Z M 64.003906 10.992188 C 64.371094 10.992188 64.738281 11.136719 65.023438 11.421875 L 68.578125 14.972656 C 69.148438 15.546875 69.148438 16.445313 68.578125 17.015625 L 66 19.585938 L 60.414063 14 L 62.984375 11.421875 C 63.269531 11.136719 63.636719 10.992188 64.003906 10.992188 Z M 49.359375 15 L 58.585938 15 L 65 21.414063 L 65 30.640625 L 37.257813 64.328125 L 33 68.585938 L 11.414063 47 L 15.671875 42.742188 Z M 51 16 C 50.449219 16 50 16.449219 50 17 C 50 17.550781 50.449219 18 51 18 C 51.550781 18 52 17.550781 52 17 C 52 16.449219 51.550781 16 51 16 Z M 54 19 C 53.449219 19 53 19.449219 53 20 C 53 20.550781 53.449219 21 54 21 C 54.550781 21 55 20.550781 55 20 C 55 19.449219 54.550781 19 54 19 Z M 57 22 C 56.449219 22 56 22.449219 56 23 C 56 23.550781 56.449219 24 57 24 C 57.550781 24 58 23.550781 58 23 C 58 22.449219 57.550781 22 57 22 Z M 60 25 C 59.449219 25 59 25.449219 59 26 C 59 26.550781 59.449219 27 60 27 C 60.550781 27 61 26.550781 61 26 C 61 25.449219 60.550781 25 60 25 Z M 63 28 C 62.449219 28 62 28.449219 62 29 C 62 29.550781 62.449219 30 63 30 C 63.550781 30 64 29.550781 64 29 C 64 28.449219 63.550781 28 63 28 Z M 40.308594 31.214844 C 38.816406 31.214844 37.371094 31.84375 36.234375 32.988281 C 35.1875 34.035156 34.871094 35.210938 34.613281 36.15625 C 34.472656 36.679688 34.347656 37.132813 34.121094 37.539063 C 33.925781 37.882813 33.707031 38.230469 33.488281 38.574219 C 32.5 40.140625 31.007813 42.511719 32.804688 44.3125 C 33.355469 44.863281 34.058594 45.179688 34.796875 45.207031 C 34.824219 45.941406 35.132813 46.640625 35.695313 47.203125 C 36.242188 47.746094 36.949219 48.035156 37.746094 48.035156 C 39.019531 48.035156 40.191406 47.300781 41.433594 46.515625 C 41.773438 46.300781 42.121094 46.082031 42.46875 45.886719 C 42.871094 45.65625 43.324219 45.535156 43.847656 45.390625 C 44.792969 45.136719 45.96875 44.816406 47.019531 43.765625 C 49.449219 41.335938 49.375 37.867188 46.839844 35.332031 C 46.460938 34.953125 46.058594 34.628906 45.640625 34.363281 C 45.375 33.945313 45.050781 33.542969 44.671875 33.164063 C 43.394531 31.886719 41.886719 31.214844 40.308594 31.214844 Z M 40.308594 33.214844 C 41.308594 33.214844 42.335938 33.65625 43.253906 34.578125 C 43.664063 34.984375 43.96875 35.40625 44.171875 35.828125 C 44.59375 36.03125 45.015625 36.335938 45.425781 36.746094 C 47.214844 38.535156 47.207031 40.75 45.605469 42.351563 C 44.445313 43.511719 42.96875 43.300781 41.480469 44.144531 C 40.125 44.910156 38.703125 46.035156 37.746094 46.035156 C 37.5 46.035156 37.285156 45.960938 37.109375 45.785156 C 36.648438 45.324219 36.6875 44.761719 37.273438 44.175781 C 38.082031 43.367188 38.980469 42.140625 39.703125 41.078125 C 39.980469 40.671875 39.644531 40.199219 39.238281 40.199219 C 39.136719 40.199219 39.027344 40.230469 38.921875 40.300781 C 37.859375 41.023438 36.636719 41.921875 35.828125 42.730469 C 35.507813 43.050781 35.191406 43.207031 34.894531 43.207031 C 34.652344 43.207031 34.421875 43.101563 34.21875 42.894531 C 33.363281 42.042969 34.894531 40.226563 35.859375 38.527344 C 36.703125 37.035156 36.492188 35.554688 37.652344 34.398438 C 38.429688 33.617188 39.355469 33.214844 40.308594 33.214844 Z M 17 44 C 16.449219 44 16 44.449219 16 45 C 16 45.550781 16.449219 46 17 46 C 17.550781 46 18 45.550781 18 45 C 18 44.449219 17.550781 44 17 44 Z M 20 47 C 19.449219 47 19 47.449219 19 48 C 19 48.550781 19.449219 49 20 49 C 20.550781 49 21 48.550781 21 48 C 21 47.449219 20.550781 47 20 47 Z M 23 50 C 22.449219 50 22 50.449219 22 51 C 22 51.550781 22.449219 52 23 52 C 23.550781 52 24 51.550781 24 51 C 24 50.449219 23.550781 50 23 50 Z M 26 53 C 25.449219 53 25 53.449219 25 54 C 25 54.550781 25.449219 55 26 55 C 26.550781 55 27 54.550781 27 54 C 27 53.449219 26.550781 53 26 53 Z M 29 56 C 28.449219 56 28 56.449219 28 57 C 28 57.550781 28.449219 58 29 58 C 29.550781 58 30 57.550781 30 57 C 30 56.449219 29.550781 56 29 56 Z M 32 59 C 31.449219 59 31 59.449219 31 60 C 31 60.550781 31.449219 61 32 61 C 32.550781 61 33 60.550781 33 60 C 33 59.449219 32.550781 59 32 59 Z M 35 62 C 34.449219 62 34 62.449219 34 63 C 34 63.550781 34.449219 64 35 64 C 35.550781 64 36 63.550781 36 63 C 36 62.449219 35.550781 62 35 62 Z"/></svg>