<svg xmlns="http://www.w3.org/2000/svg"  viewBox="0 0 50 50" width="50px" height="50px"><path d="M 20.15625 2.03125 C 19.484375 2.085938 18.839844 2.324219 18.28125 2.78125 C 16.792969 3.996094 16.566406 6.230469 17.78125 7.71875 L 21.71875 12.53125 C 21.699219 12.519531 21.675781 12.507813 21.65625 12.5 L 14.15625 8.4375 C 12.46875 7.519531 10.355469 8.15625 9.4375 9.84375 C 8.519531 11.53125 9.15625 13.644531 10.84375 14.5625 L 17.375 18.125 L 18.75 20 L 16.84375 20 C 15.769531 20 14.734375 20.433594 13.96875 21.1875 L 9.0625 26 C 7.6875 27.355469 7.675781 29.613281 9.03125 30.96875 C 9.210938 31.148438 9.417969 31.242188 9.625 31.375 L 8.625 31.78125 C 8.359375 31.890625 8.15625 32.105469 8.058594 32.371094 C 7.964844 32.640625 7.988281 32.9375 8.125 33.1875 L 13.09375 42.75 C 13.179688 42.917969 13.308594 43.058594 13.46875 43.15625 L 18.71875 46.25 C 20.101563 47.066406 21.78125 47.199219 23.28125 46.625 L 25.125 45.9375 C 28.292969 44.726563 31.761719 44.679688 34.96875 45.78125 L 40.6875 47.71875 C 40.988281 47.816406 41.320313 47.769531 41.582031 47.582031 C 41.839844 47.398438 41.996094 47.101563 42 46.78125 L 42 30.625 C 41.996094 30.367188 41.898438 30.121094 41.71875 29.9375 L 37 24.9375 L 37 9.5 C 37 7.578125 35.421875 6 33.5 6 C 31.578125 6 30 7.578125 30 9.5 L 30 14.59375 L 28.96875 10.46875 C 28.925781 10.328125 28.847656 10.203125 28.75 10.09375 L 28.71875 10.03125 C 28.679688 9.984375 28.640625 9.945313 28.59375 9.90625 L 23.21875 3.28125 C 22.613281 2.535156 21.738281 2.121094 20.84375 2.03125 C 20.621094 2.007813 20.378906 2.011719 20.15625 2.03125 Z M 20.375 4 C 20.46875 3.992188 20.5625 3.992188 20.65625 4 C 21.035156 4.039063 21.390625 4.238281 21.65625 4.5625 L 27.09375 11.1875 L 29.09375 19.21875 C 29.128906 19.378906 29.203125 19.53125 29.3125 19.65625 L 30.28125 20.65625 C 30.5625 20.949219 30.996094 21.039063 31.371094 20.890625 C 31.75 20.738281 31.996094 20.375 32 19.96875 L 32 9.5 C 32 8.660156 32.660156 8 33.5 8 C 34.339844 8 35 8.660156 35 9.5 L 35 25.3125 C 35.003906 25.570313 35.101563 25.816406 35.28125 26 L 40 31 L 40 45.375 L 35.625 43.875 C 31.972656 42.621094 28.011719 42.683594 24.40625 44.0625 L 22.5625 44.78125 C 21.628906 45.136719 20.578125 45.039063 19.71875 44.53125 L 14.78125 41.625 L 10.40625 33.25 L 11.25 32.90625 C 12.621094 32.359375 14.175781 32.847656 14.96875 34.09375 L 17.15625 37.53125 C 17.304688 37.761719 17.542969 37.917969 17.8125 37.96875 L 22.8125 38.96875 C 23.144531 39.035156 23.484375 38.925781 23.71875 38.6875 L 27.875 34.3125 C 28.15625 34.007813 28.21875 33.558594 28.03125 33.1875 L 25.03125 26.9375 C 24.882813 26.648438 24.601563 26.449219 24.28125 26.40625 L 17.46875 25.3125 C 17.160156 25.269531 16.847656 25.375 16.625 25.59375 L 12.5625 29.5625 C 11.972656 30.144531 11.015625 30.140625 10.4375 29.5625 C 9.871094 28.996094 9.878906 28.019531 10.46875 27.4375 L 15.375 22.59375 C 15.765625 22.207031 16.292969 22 16.84375 22 L 20.75 22 C 21.125 21.992188 21.460938 21.777344 21.625 21.441406 C 21.789063 21.105469 21.753906 20.707031 21.53125 20.40625 L 18.875 16.78125 C 18.785156 16.652344 18.667969 16.542969 18.53125 16.46875 L 11.78125 12.8125 C 11.042969 12.410156 10.785156 11.519531 11.1875 10.78125 C 11.589844 10.042969 12.480469 9.785156 13.21875 10.1875 L 20.8125 14.3125 L 23.8125 18.4375 C 24.09375 18.835938 24.617188 18.972656 25.058594 18.765625 C 25.5 18.558594 25.722656 18.0625 25.59375 17.59375 L 24.375 12.78125 C 24.339844 12.644531 24.277344 12.515625 24.1875 12.40625 L 19.34375 6.4375 C 18.8125 5.789063 18.910156 4.875 19.5625 4.34375 C 19.808594 4.144531 20.089844 4.027344 20.375 4 Z M 17.65625 27.375 L 23.4375 28.28125 L 25.9375 33.4375 L 22.65625 36.9375 L 18.625 36.125 L 16.65625 33 C 16.023438 32.007813 15.085938 31.300781 14.03125 30.9375 Z"/></svg>