<?xml version="1.0" encoding="UTF-8"?><svg xmlns="http://www.w3.org/2000/svg" xmlns:xlink="http://www.w3.org/1999/xlink" viewBox="0 0 3000 3000"><g style="isolation:isolate;"><g id="Layer_1"><image width="1024" height="1024" transform="scale(2.92969)" xlink:href="tooth.png"/><path d="M1611.70436,423.05238s-220.26773-60.52402-302.62008-65.485-330.4016-36.71129-552.65372,132.9544c0,0-221.25993,0-365.12849,195.46281s-146.84515,387.94902-148.82955,546.70054,72.43038,563.56789,112.11826,676.67834,219.937,683.95445,542.73175,776.55951c108.4802,29.10444,190.50182-78.05283,218.28334-154.78273,0,0,174.62667,125.67828,305.59667-103.18849,0,0,101.86556,306.9196,277.81516,306.9196,120.38657,0,191.82475-96.57384,228.86677-138.90758,0,0,84.66748,46.30253,178.59546-7.93758s210.34576-174.62667,293.69031-342.63869,193.14768-415.3998,236.80435-658.8188,74.08404-469.63991,43.65667-666.75637-154.78273-370.42021-255.32536-431.27496-283.10687-96.57384-425.98324-78.05283c-85.99041,7.93758-171.98081,56.88596-248.71071,43.65667s-138.90758-31.08884-138.90758-31.08884Z" style="fill:#f2f2f2; mix-blend-mode:multiply;"/></g></g></svg>